<svg xmlns="http://www.w3.org/2000/svg" version="1.0" width="699.000000pt" height="579.000000pt" viewBox="0 0 699.000000 579.000000" preserveAspectRatio="xMidYMid meet">

<g transform="translate(0.000000,579.000000) scale(0.100000,-0.100000)" fill="#3b82f6" stroke="none">
<path d="M3419 5164 c-65 -20 -132 -82 -160 -149 l-23 -55 -649 0 -649 0 -29 -29 c-20 -20 -29 -40 -29 -61 0 -36 -25 -100 -39 -100 -5 0 -13 5 -17 11 -3 6 -27 20 -51 31 -56 25 -115 18 -169 -19 -36 -24 -39 -24 -51 -7 -7 10 -16 40 -19 68 -8 57 -47 106 -84 106 -29 0 -76 -26 -84 -45 -12 -33 -5 -116 15 -169 11 -30 41 -78 66 -106 28 -32 43 -57 40 -68 -2 -9 -179 -476 -393 -1037 l-389 -1020 1 -125 c0 -106 4 -134 24 -185 70 -181 227 -314 408 -345 46 -7 238 -10 607 -8 l540 3 72 26 c175 64 308 214 344 388 6 30 9 100 7 155 l-5 101 -393 1032 -393 1033 45 47 c24 27 53 69 64 95 l19 48 598 0 597 0 0 -1364 0 -1365 -52 -19 c-29 -11 -259 -102 -510 -202 -399 -158 -461 -185 -487 -215 -39 -45 -51 -90 -51 -195 l0 -85 -52 -20 c-33 -13 -62 -34 -82 -58 l-31 -39 0 -152 0 -153 29 -37 c16 -21 47 -47 70 -57 39 -18 95 -19 1426 -19 1331 0 1387 1 1426 19 23 10 54 36 70 57 l29 37 0 153 0 152 -31 39 c-20 24 -49 45 -82 58 l-52 20 0 85 c0 194 -10 203 -380 349 -157 61 -383 151 -502 198 l-218 86 0 1363 0 1364 598 0 597 0 19 -48 c11 -26 40 -68 64 -94 l45 -48 -393 -1032 -393 -1033 -5 -101 c-2 -55 1 -125 7 -155 36 -174 169 -324 344 -388 l72 -26 534 -3 c347 -2 559 1 605 8 185 28 345 160 416 345 20 51 24 79 24 185 l1 125 -389 1020 c-214 561 -391 1028 -393 1037 -3 11 12 36 40 68 25 28 55 76 66 106 20 53 27 136 15 169 -8 19 -55 45 -84 45 -37 0 -76 -49 -84 -106 -3 -28 -12 -58 -19 -68 -12 -17 -15 -17 -51 7 -54 37 -113 44 -169 19 -24 -11 -48 -25 -51 -31 -4 -6 -12 -11 -17 -11 -14 0 -39 64 -39 100 0 21 -9 41 -29 61 l-29 29 -649 0 -649 0 -23 55 c-29 69 -95 129 -164 150 -61 18 -98 18 -158 -1z m145 -195 l26 -31 0 -1503 0 -1503 298 -118 c163 -64 407 -161 542 -214 l245 -98 3 -86 3 -86 -1181 0 -1181 0 3 86 3 86 195 78 c107 42 351 139 543 214 l347 138 0 1503 0 1503 26 31 c20 25 34 31 64 31 30 0 44 -6 64 -31z m-1421 -1467 c213 -560 387 -1023 387 -1030 0 -9 -78 -12 -320 -12 -176 0 -320 3 -320 8 1 4 53 63 116 132 122 132 156 189 175 283 31 152 -51 321 -186 388 -54 26 -76 32 -133 31 -37 0 -87 -7 -111 -15 -38 -14 -48 -14 -85 0 -67 24 -174 20 -239 -10 -180 -82 -255 -324 -156 -507 16 -30 79 -109 139 -175 61 -66 110 -123 110 -127 0 -5 -144 -8 -320 -8 -176 0 -320 3 -320 8 0 4 174 467 387 1029 l388 1023 51 0 51 0 386 -1018z m3590 -5 c213 -562 387 -1025 387 -1029 0 -5 -371 -8 -825 -8 -638 0 -825 3 -825 12 0 7 174 470 387 1030 l386 1018 51 0 51 0 388 -1023z m-4103 -388 c24 -11 52 -27 61 -35 14 -13 19 -12 42 6 37 29 91 50 130 50 107 0 184 -162 129 -271 -10 -20 -78 -102 -152 -183 -105 -115 -136 -144 -146 -134 -186 203 -261 291 -277 327 -49 112 26 261 132 261 20 0 56 -10 81 -21z m890 -836 c0 -29 -55 -117 -95 -151 -19 -18 -59 -44 -88 -60 l-52 -27 -575 0 -575 0 -56 26 c-32 15 -75 45 -98 68 -37 37 -91 126 -91 151 0 7 261 10 815 10 770 0 815 -1 815 -17z m3590 7 c0 -25 -54 -114 -91 -151 -23 -23 -66 -53 -98 -68 l-56 -26 -575 0 -575 0 -52 27 c-72 38 -119 82 -154 142 -54 95 -138 86 786 86 554 0 815 -3 815 -10z m-1250 -1215 l0 -85 -1360 0 -1360 0 0 85 0 85 1360 0 1360 0 0 -85z" fill="#3b82f6"/>
<path d="M5245 3776 c-13 -9 -20 -30 -23 -70 -4 -51 -7 -57 -31 -62 -146 -31 -221 -115 -221 -247 0 -147 64 -209 297 -291 168 -58 208 -88 208 -155 0 -90 -51 -126 -175 -126 -100 0 -153 20 -222 83 -24 22 -53 42 -64 46 -49 15 -105 -44 -89 -94 20 -63 162 -161 254 -176 l41 -7 0 -49 c0 -78 54 -120 107 -83 17 12 23 27 25 72 l3 57 60 13 c112 25 183 85 211 179 28 95 12 181 -48 249 -51 58 -99 86 -228 130 -179 63 -219 91 -220 152 0 77 100 128 209 104 54 -11 102 -34 161 -77 39 -29 74 -26 103 8 26 31 21 64 -19 108 -38 42 -142 100 -180 100 -46 0 -54 9 -54 65 0 38 -5 56 -18 68 -22 20 -62 22 -87 3z" fill="#3b82f6"/>
</g>
</svg>