<svg id="svg" xmlns="http://www.w3.org/2000/svg" xmlns:xlink="http://www.w3.org/1999/xlink" width="400" height="400" viewBox="0, 0, 400,400" version="1.1"><g id="svgg"><path id="path0" d="M188.438 13.405 C 188.438 13.560,186.539 13.788,184.219 13.912 C 181.898 14.036,180.000 14.247,180.000 14.380 C 180.000 14.512,178.734 14.721,177.188 14.844 C 175.641 14.966,174.375 15.180,174.375 15.319 C 174.375 15.458,173.320 15.671,172.031 15.791 C 170.742 15.912,169.688 16.124,169.688 16.262 C 169.688 16.400,168.771 16.611,167.652 16.731 C 166.532 16.851,165.542 17.069,165.452 17.215 C 165.361 17.362,164.589 17.574,163.737 17.687 C 162.885 17.801,162.188 17.997,162.188 18.125 C 162.188 18.253,161.490 18.449,160.638 18.563 C 159.786 18.676,159.006 18.901,158.906 19.062 C 158.806 19.224,158.027 19.449,157.175 19.562 C 156.322 19.676,155.625 19.891,155.625 20.040 C 155.625 20.190,155.379 20.313,155.078 20.314 C 154.777 20.315,154.139 20.521,153.659 20.771 C 153.179 21.022,152.298 21.318,151.702 21.430 C 151.106 21.542,150.541 21.758,150.447 21.910 C 150.353 22.063,150.065 22.188,149.808 22.188 C 149.377 22.188,147.052 23.106,145.927 23.721 C 145.664 23.865,144.996 24.082,144.443 24.204 C 143.890 24.325,143.438 24.543,143.438 24.688 C 143.438 24.832,143.016 25.043,142.500 25.156 C 141.984 25.270,141.563 25.492,141.563 25.650 C 141.563 25.808,141.316 25.940,141.016 25.942 C 140.166 25.950,130.360 30.988,128.787 32.225 C 128.377 32.548,127.903 32.812,127.734 32.813 C 127.566 32.813,126.476 33.445,125.313 34.219 C 124.149 34.992,123.094 35.625,122.968 35.625 C 122.842 35.625,122.258 36.047,121.671 36.562 C 121.084 37.078,120.414 37.500,120.184 37.500 C 119.953 37.500,119.577 37.725,119.349 38.000 C 118.995 38.427,116.778 40.009,115.013 41.094 C 114.734 41.266,114.159 41.719,113.737 42.101 C 111.973 43.696,110.380 45.000,110.196 45.000 C 110.088 45.000,109.453 45.562,108.786 46.250 C 108.119 46.937,107.461 47.500,107.324 47.500 C 106.956 47.500,96.563 57.372,96.563 57.721 C 96.563 57.830,95.684 58.863,94.609 60.018 C 93.535 61.173,92.276 62.590,91.810 63.168 C 91.345 63.746,90.431 64.869,89.779 65.665 C 89.127 66.460,88.242 67.569,87.813 68.129 C 87.383 68.689,86.645 69.604,86.172 70.162 C 85.699 70.720,85.312 71.326,85.312 71.510 C 85.313 71.694,85.137 71.956,84.922 72.094 C 84.483 72.374,83.899 73.246,83.444 74.297 C 83.277 74.684,82.996 75.000,82.820 75.000 C 82.644 75.000,82.500 75.146,82.500 75.325 C 82.500 75.695,81.215 77.602,80.859 77.760 C 80.730 77.818,80.625 78.032,80.625 78.236 C 80.625 78.441,80.133 79.355,79.531 80.269 C 78.930 81.182,78.438 82.058,78.438 82.215 C 78.438 82.372,78.330 82.500,78.199 82.500 C 78.068 82.500,77.822 82.772,77.652 83.104 C 77.483 83.436,76.953 84.491,76.475 85.448 C 75.998 86.405,75.481 87.188,75.328 87.188 C 75.175 87.188,74.957 87.609,74.844 88.125 C 74.730 88.641,74.520 89.063,74.375 89.063 C 74.230 89.063,74.020 89.484,73.906 90.000 C 73.793 90.516,73.582 90.938,73.438 90.938 C 73.293 90.938,73.082 91.359,72.969 91.875 C 72.855 92.391,72.645 92.813,72.500 92.813 C 72.355 92.813,72.141 93.249,72.024 93.783 C 71.907 94.317,71.483 95.407,71.082 96.205 C 70.013 98.333,69.063 100.546,69.063 100.904 C 69.063 101.076,68.715 101.871,68.290 102.670 C 67.865 103.470,67.427 104.604,67.317 105.190 C 67.207 105.777,67.004 106.326,66.867 106.411 C 66.729 106.496,66.522 107.127,66.406 107.813 C 66.290 108.498,66.079 109.131,65.937 109.219 C 65.796 109.306,65.585 109.939,65.469 110.625 C 65.353 111.311,65.134 111.949,64.982 112.042 C 64.830 112.136,64.613 112.911,64.500 113.763 C 64.387 114.615,64.185 115.313,64.052 115.313 C 63.918 115.313,63.712 116.015,63.594 116.875 C 63.476 117.734,63.268 118.505,63.132 118.589 C 62.997 118.673,62.789 119.515,62.671 120.460 C 62.553 121.405,62.337 122.252,62.190 122.342 C 62.044 122.433,61.826 123.419,61.707 124.535 C 61.587 125.650,61.380 126.563,61.246 126.563 C 61.112 126.563,60.903 127.688,60.781 129.064 C 60.659 130.440,60.447 131.635,60.310 131.720 C 60.173 131.805,59.958 133.386,59.834 135.234 C 59.706 137.133,59.455 138.691,59.257 138.817 C 58.753 139.137,58.762 165.352,59.266 165.967 C 59.463 166.209,59.726 167.531,59.850 168.906 C 59.974 170.281,60.181 171.547,60.311 171.719 C 60.441 171.891,60.645 172.838,60.765 173.823 C 60.884 174.809,61.098 175.687,61.241 175.776 C 61.384 175.864,61.599 176.780,61.719 177.812 C 61.838 178.843,62.055 179.688,62.199 179.688 C 62.344 179.687,62.558 180.355,62.677 181.172 C 62.795 181.988,63.002 182.797,63.136 182.969 C 63.271 183.141,63.480 183.810,63.601 184.457 C 63.722 185.103,63.946 185.709,64.098 185.803 C 64.250 185.897,64.376 186.282,64.377 186.659 C 64.378 187.036,64.589 187.747,64.846 188.239 C 65.102 188.731,65.313 189.364,65.314 189.645 C 65.315 189.926,65.513 190.533,65.754 190.995 C 65.994 191.456,66.291 192.299,66.413 192.870 C 66.535 193.440,66.743 194.047,66.875 194.219 C 67.007 194.391,67.213 194.988,67.332 195.547 C 67.452 196.105,67.679 196.563,67.837 196.563 C 67.996 196.563,68.126 196.809,68.127 197.109 C 68.128 197.410,68.326 198.033,68.566 198.495 C 68.807 198.956,69.098 199.764,69.214 200.291 C 69.330 200.819,69.554 201.250,69.712 201.250 C 69.871 201.250,70.001 201.496,70.002 201.797 C 70.003 202.098,70.201 202.721,70.441 203.182 C 70.682 203.643,70.973 204.452,71.089 204.979 C 71.205 205.506,71.418 205.938,71.563 205.938 C 71.707 205.938,71.918 206.359,72.031 206.875 C 72.145 207.391,72.367 207.813,72.525 207.813 C 72.683 207.813,72.814 208.059,72.816 208.359 C 72.819 208.660,73.228 209.711,73.727 210.694 C 74.226 211.677,74.727 212.908,74.842 213.428 C 74.956 213.949,75.168 214.375,75.312 214.375 C 75.457 214.375,75.668 214.797,75.781 215.313 C 75.895 215.828,76.105 216.250,76.250 216.250 C 76.395 216.250,76.605 216.672,76.719 217.188 C 76.832 217.703,77.043 218.125,77.188 218.125 C 77.332 218.125,77.543 218.547,77.656 219.063 C 77.770 219.578,77.980 220.000,78.125 220.000 C 78.270 220.000,78.480 220.422,78.594 220.938 C 78.707 221.453,78.918 221.875,79.063 221.875 C 79.207 221.875,79.418 222.297,79.531 222.813 C 79.645 223.328,79.855 223.750,80.000 223.750 C 80.145 223.750,80.355 224.172,80.469 224.688 C 80.582 225.203,80.793 225.625,80.938 225.625 C 81.082 225.625,81.293 226.047,81.406 226.563 C 81.520 227.078,81.730 227.500,81.875 227.500 C 82.020 227.500,82.230 227.922,82.344 228.438 C 82.457 228.953,82.672 229.375,82.822 229.375 C 82.972 229.375,83.672 230.535,84.378 231.953 C 85.758 234.727,86.295 235.691,86.599 235.938 C 86.704 236.023,86.899 236.445,87.031 236.875 C 87.164 237.305,87.358 237.727,87.464 237.813 C 87.748 238.044,88.323 239.017,89.264 240.859 C 89.725 241.762,90.208 242.500,90.338 242.500 C 90.469 242.500,90.668 242.922,90.781 243.438 C 90.895 243.953,91.107 244.375,91.253 244.375 C 91.399 244.375,91.835 245.008,92.221 245.781 C 92.607 246.555,93.028 247.188,93.156 247.188 C 93.283 247.188,93.480 247.609,93.594 248.125 C 93.707 248.641,93.929 249.063,94.087 249.063 C 94.246 249.063,94.375 249.209,94.375 249.388 C 94.375 249.708,95.581 251.567,95.991 251.878 C 96.106 251.966,96.297 252.423,96.415 252.894 C 96.534 253.365,96.746 253.750,96.887 253.750 C 97.028 253.750,97.460 254.383,97.846 255.156 C 98.232 255.930,98.648 256.563,98.769 256.563 C 98.890 256.563,99.080 256.809,99.190 257.109 C 99.300 257.410,99.739 258.219,100.165 258.906 C 100.591 259.594,101.026 260.402,101.131 260.703 C 101.237 261.004,101.437 261.250,101.577 261.250 C 101.717 261.250,102.147 261.883,102.533 262.656 C 102.920 263.430,103.351 264.062,103.493 264.062 C 103.634 264.063,103.750 264.209,103.750 264.388 C 103.750 264.708,104.956 266.567,105.366 266.878 C 105.481 266.966,105.672 267.423,105.790 267.894 C 105.909 268.365,106.134 268.750,106.292 268.750 C 106.449 268.750,106.715 269.066,106.882 269.453 C 107.276 270.365,107.899 271.355,108.231 271.598 C 108.548 271.830,109.289 273.072,109.563 273.828 C 109.671 274.129,109.888 274.375,110.044 274.375 C 110.200 274.375,110.465 274.691,110.632 275.078 C 111.026 275.990,111.649 276.980,111.981 277.223 C 112.298 277.455,113.039 278.697,113.313 279.453 C 113.421 279.754,113.638 280.000,113.794 280.000 C 113.950 280.000,114.215 280.316,114.382 280.703 C 114.836 281.754,115.421 282.626,115.859 282.906 C 116.074 283.044,116.250 283.306,116.250 283.490 C 116.250 283.674,116.677 284.334,117.198 284.959 C 118.624 286.665,118.750 286.833,118.750 287.031 C 118.750 287.268,120.078 289.161,120.419 289.411 C 120.735 289.642,121.477 290.884,121.750 291.641 C 121.859 291.941,122.076 292.187,122.232 292.188 C 122.388 292.188,122.652 292.504,122.819 292.891 C 123.263 293.916,123.813 294.713,124.609 295.484 C 124.996 295.859,125.313 296.260,125.313 296.377 C 125.312 296.635,126.618 298.520,126.981 298.786 C 127.230 298.968,127.826 299.915,128.330 300.931 C 128.456 301.185,128.883 301.693,129.280 302.060 C 129.676 302.427,130.000 302.866,130.000 303.034 C 130.000 303.203,130.281 303.595,130.625 303.906 C 130.969 304.217,131.250 304.646,131.250 304.859 C 131.250 305.072,131.461 305.327,131.719 305.426 C 131.977 305.524,132.187 305.767,132.187 305.965 C 132.187 306.286,133.275 307.730,134.539 309.089 C 134.793 309.361,135.000 309.694,135.000 309.829 C 135.000 310.054,136.253 311.658,137.352 312.839 C 137.605 313.111,137.812 313.444,137.812 313.579 C 137.813 313.804,139.066 315.408,140.164 316.589 C 140.418 316.861,140.625 317.194,140.625 317.329 C 140.625 317.554,141.878 319.158,142.977 320.339 C 143.230 320.611,143.437 320.944,143.437 321.079 C 143.438 321.304,144.691 322.908,145.789 324.089 C 146.043 324.361,146.250 324.721,146.250 324.890 C 146.250 325.058,146.672 325.600,147.187 326.094 C 147.703 326.588,148.125 327.113,148.125 327.261 C 148.125 327.409,148.477 327.856,148.906 328.254 C 149.336 328.652,149.688 329.085,149.688 329.217 C 149.687 329.426,150.993 331.044,152.357 332.526 C 152.607 332.798,152.812 333.159,152.813 333.327 C 152.813 333.495,153.234 334.037,153.750 334.531 C 154.266 335.025,154.693 335.579,154.701 335.762 C 154.708 335.944,155.130 336.439,155.638 336.860 C 156.147 337.282,156.562 337.783,156.563 337.974 C 156.563 338.164,156.984 338.725,157.500 339.219 C 158.016 339.713,158.443 340.266,158.451 340.449 C 158.458 340.632,158.880 341.126,159.388 341.548 C 159.897 341.969,160.313 342.470,160.313 342.661 C 160.313 342.852,160.734 343.412,161.250 343.906 C 161.766 344.400,162.193 344.954,162.201 345.137 C 162.208 345.319,162.630 345.814,163.138 346.235 C 163.647 346.657,164.063 347.158,164.063 347.349 C 164.063 347.539,164.484 348.100,165.000 348.594 C 165.516 349.088,165.943 349.641,165.951 349.824 C 165.958 350.007,166.380 350.501,166.888 350.923 C 167.397 351.344,167.813 351.845,167.813 352.036 C 167.813 352.227,168.234 352.787,168.750 353.281 C 169.266 353.775,169.687 354.294,169.688 354.434 C 169.688 354.574,170.250 355.234,170.938 355.901 C 171.625 356.568,172.188 357.244,172.188 357.402 C 172.188 357.560,172.680 358.167,173.281 358.750 C 173.883 359.333,174.375 359.923,174.375 360.062 C 174.375 360.200,174.937 360.859,175.625 361.526 C 176.312 362.193,176.875 362.869,176.875 363.027 C 176.875 363.185,177.367 363.792,177.969 364.375 C 178.570 364.958,179.062 365.551,179.063 365.692 C 179.063 365.833,179.695 366.554,180.469 367.295 C 181.242 368.037,181.875 368.781,181.875 368.950 C 181.875 369.120,182.297 369.662,182.812 370.156 C 183.328 370.650,183.750 371.171,183.750 371.314 C 183.750 371.456,184.383 372.179,185.156 372.920 C 185.930 373.662,186.563 374.403,186.563 374.569 C 186.562 374.734,187.195 375.491,187.969 376.250 C 188.742 377.009,189.375 377.739,189.375 377.871 C 189.375 378.003,190.148 378.873,191.094 379.803 C 192.039 380.734,192.813 381.620,192.813 381.774 C 192.813 382.179,196.049 385.313,196.468 385.313 C 196.663 385.313,196.882 385.488,196.953 385.703 C 197.045 385.978,197.944 386.094,200.000 386.094 C 202.056 386.094,202.955 385.978,203.047 385.703 C 203.118 385.488,203.344 385.313,203.549 385.313 C 203.977 385.313,208.750 380.597,208.750 380.174 C 208.750 380.019,209.383 379.287,210.156 378.545 C 210.930 377.804,211.562 377.084,211.563 376.945 C 211.563 376.806,212.195 376.072,212.969 375.313 C 213.742 374.553,214.375 373.797,214.375 373.631 C 214.375 373.466,215.008 372.724,215.781 371.983 C 216.555 371.242,217.188 370.522,217.188 370.383 C 217.188 370.244,217.820 369.509,218.594 368.750 C 219.367 367.991,220.000 367.239,220.000 367.078 C 220.000 366.917,220.414 366.349,220.920 365.815 C 223.087 363.525,224.688 361.633,224.688 361.359 C 224.688 361.197,225.103 360.719,225.612 360.298 C 226.120 359.876,226.542 359.383,226.549 359.202 C 226.557 359.021,227.055 358.396,227.656 357.812 C 228.258 357.229,228.750 356.623,228.750 356.465 C 228.750 356.306,229.313 355.631,230.000 354.964 C 230.688 354.297,231.250 353.636,231.250 353.496 C 231.250 353.356,231.672 352.838,232.188 352.344 C 232.703 351.850,233.125 351.289,233.125 351.099 C 233.125 350.908,233.541 350.407,234.049 349.985 C 234.558 349.564,234.979 349.071,234.987 348.889 C 234.994 348.708,235.492 348.083,236.094 347.500 C 236.695 346.917,237.188 346.318,237.188 346.169 C 237.188 346.020,237.533 345.520,237.955 345.058 C 239.626 343.229,240.938 341.632,240.938 341.427 C 240.937 341.308,241.285 340.832,241.709 340.371 C 243.221 338.727,244.375 337.257,244.375 336.975 C 244.375 336.818,244.791 336.344,245.299 335.923 C 245.808 335.501,246.229 335.007,246.237 334.824 C 246.244 334.641,246.672 334.088,247.188 333.594 C 247.703 333.100,248.125 332.558,248.125 332.390 C 248.125 332.221,248.330 331.861,248.581 331.589 C 249.945 330.107,251.250 328.488,251.250 328.279 C 251.250 328.148,251.602 327.715,252.031 327.316 C 252.461 326.918,252.813 326.467,252.813 326.313 C 252.813 326.160,253.094 325.780,253.438 325.469 C 253.781 325.158,254.063 324.775,254.063 324.619 C 254.062 324.463,254.410 323.957,254.834 323.496 C 256.273 321.931,257.500 320.387,257.500 320.141 C 257.500 320.006,257.707 319.673,257.961 319.401 C 259.059 318.221,260.313 316.617,260.313 316.391 C 260.313 316.256,260.520 315.923,260.773 315.651 C 261.872 314.471,263.125 312.867,263.125 312.641 C 263.125 312.506,263.332 312.173,263.586 311.901 C 264.850 310.542,265.938 309.098,265.938 308.777 C 265.937 308.580,266.148 308.337,266.406 308.238 C 266.664 308.139,266.875 307.884,266.875 307.671 C 266.875 307.458,267.156 307.030,267.500 306.719 C 267.844 306.408,268.125 306.015,268.125 305.847 C 268.125 305.678,268.449 305.240,268.845 304.873 C 269.242 304.505,269.669 303.997,269.795 303.743 C 270.184 302.959,270.763 302.030,271.161 301.551 C 271.370 301.300,271.968 300.583,272.489 299.959 C 273.011 299.334,273.438 298.674,273.438 298.490 C 273.438 298.306,273.624 298.044,273.852 297.906 C 274.079 297.769,274.366 297.445,274.489 297.188 C 274.937 296.246,275.575 295.223,275.831 295.036 C 276.194 294.770,277.500 292.885,277.500 292.627 C 277.500 292.510,277.816 292.109,278.203 291.734 C 278.999 290.963,279.550 290.166,279.993 289.141 C 280.160 288.754,280.425 288.438,280.581 288.438 C 280.737 288.438,280.954 288.191,281.062 287.891 C 281.336 287.134,282.077 285.892,282.394 285.661 C 282.819 285.350,284.063 283.489,284.063 283.164 C 284.063 282.999,284.168 282.818,284.297 282.760 C 284.639 282.608,285.938 280.702,285.938 280.351 C 285.938 280.187,286.043 280.005,286.172 279.948 C 286.514 279.796,287.813 277.889,287.813 277.539 C 287.813 277.374,287.918 277.193,288.047 277.135 C 288.389 276.983,289.688 275.077,289.687 274.726 C 289.687 274.562,289.793 274.380,289.922 274.323 C 290.264 274.171,291.563 272.264,291.563 271.914 C 291.563 271.749,291.668 271.568,291.797 271.510 C 292.153 271.352,293.438 269.445,293.438 269.075 C 293.438 268.896,293.553 268.750,293.695 268.750 C 293.836 268.750,294.268 268.117,294.654 267.344 C 295.040 266.570,295.471 265.937,295.610 265.937 C 295.750 265.937,295.955 265.691,296.065 265.391 C 296.436 264.379,297.219 263.125,297.481 263.125 C 297.623 263.125,297.826 262.879,297.931 262.578 C 298.037 262.277,298.472 261.469,298.898 260.781 C 299.324 260.094,299.763 259.285,299.873 258.984 C 299.983 258.684,300.172 258.437,300.294 258.437 C 300.415 258.437,300.830 257.805,301.217 257.031 C 301.603 256.258,302.034 255.625,302.176 255.625 C 302.317 255.625,302.529 255.240,302.647 254.769 C 302.765 254.298,302.956 253.841,303.072 253.753 C 303.481 253.442,304.688 251.583,304.688 251.263 C 304.688 251.084,304.813 250.938,304.966 250.938 C 305.119 250.938,305.341 250.552,305.460 250.081 C 305.578 249.610,305.769 249.153,305.884 249.066 C 306.294 248.754,307.500 246.895,307.500 246.575 C 307.500 246.396,307.629 246.250,307.788 246.250 C 307.946 246.250,308.168 245.828,308.281 245.313 C 308.395 244.797,308.592 244.375,308.719 244.375 C 308.847 244.375,309.268 243.742,309.654 242.969 C 310.040 242.195,310.476 241.562,310.622 241.563 C 310.768 241.563,310.980 241.141,311.094 240.625 C 311.207 240.109,311.413 239.688,311.551 239.688 C 311.689 239.687,311.890 239.441,311.996 239.141 C 312.103 238.840,312.747 237.609,313.428 236.406 C 314.108 235.203,314.756 233.973,314.869 233.672 C 314.981 233.371,315.186 233.125,315.324 233.125 C 315.462 233.125,315.668 232.703,315.781 232.188 C 315.895 231.672,316.101 231.250,316.241 231.250 C 316.381 231.250,316.591 230.865,316.710 230.394 C 316.828 229.923,317.019 229.466,317.134 229.378 C 317.630 229.001,324.375 215.627,324.375 215.021 C 324.375 214.813,324.586 214.432,324.844 214.174 C 325.102 213.916,325.313 213.434,325.313 213.103 C 325.313 212.771,325.442 212.500,325.600 212.500 C 325.758 212.500,325.980 212.078,326.094 211.563 C 326.207 211.047,326.418 210.625,326.563 210.625 C 326.707 210.625,326.919 210.199,327.033 209.678 C 327.148 209.158,327.649 207.927,328.148 206.944 C 328.647 205.961,329.056 204.910,329.059 204.609 C 329.061 204.309,329.192 204.063,329.350 204.063 C 329.508 204.063,329.736 203.617,329.855 203.074 C 329.974 202.530,330.396 201.475,330.792 200.730 C 331.189 199.985,331.605 198.954,331.719 198.438 C 331.832 197.922,332.038 197.500,332.177 197.500 C 332.316 197.500,332.524 196.867,332.640 196.094 C 332.756 195.320,332.976 194.687,333.130 194.688 C 333.284 194.688,333.502 194.194,333.615 193.590 C 333.728 192.987,333.933 192.424,334.071 192.339 C 334.208 192.254,334.415 191.623,334.531 190.938 C 334.647 190.252,334.858 189.619,335.000 189.531 C 335.142 189.444,335.353 188.811,335.469 188.125 C 335.585 187.439,335.804 186.801,335.956 186.708 C 336.108 186.614,336.324 185.839,336.437 184.987 C 336.551 184.135,336.750 183.437,336.880 183.437 C 337.010 183.437,337.216 182.770,337.338 181.953 C 337.459 181.137,337.668 180.328,337.802 180.156 C 337.936 179.984,338.142 179.179,338.260 178.367 C 338.377 177.554,338.596 176.814,338.746 176.721 C 338.896 176.628,339.116 175.746,339.235 174.761 C 339.355 173.775,339.563 172.828,339.699 172.656 C 339.835 172.484,340.047 171.289,340.170 170.000 C 340.292 168.711,340.506 167.513,340.644 167.337 C 340.782 167.162,340.995 165.435,341.117 163.500 C 341.240 161.565,341.460 159.907,341.608 159.816 C 341.956 159.600,341.957 147.188,341.609 147.188 C 341.462 147.188,341.242 144.905,341.119 142.115 C 340.997 139.325,340.782 136.970,340.642 136.881 C 340.502 136.792,340.285 135.417,340.160 133.826 C 340.035 132.235,339.822 130.865,339.687 130.781 C 339.551 130.697,339.341 129.503,339.219 128.127 C 339.097 126.751,338.888 125.625,338.754 125.625 C 338.620 125.625,338.413 124.712,338.293 123.597 C 338.174 122.482,337.956 121.495,337.810 121.405 C 337.663 121.314,337.447 120.467,337.329 119.522 C 337.211 118.577,336.994 117.730,336.848 117.639 C 336.701 117.549,336.488 116.777,336.375 115.925 C 336.262 115.072,336.063 114.375,335.933 114.375 C 335.803 114.375,335.602 113.745,335.486 112.976 C 335.371 112.207,335.144 111.495,334.982 111.395 C 334.820 111.295,334.687 110.905,334.686 110.528 C 334.685 110.152,334.479 109.451,334.229 108.971 C 333.978 108.491,333.682 107.612,333.571 107.018 C 333.459 106.424,333.252 105.938,333.109 105.938 C 332.967 105.938,332.756 105.305,332.640 104.531 C 332.524 103.758,332.304 103.125,332.152 103.125 C 332.000 103.125,331.875 102.977,331.875 102.795 C 331.875 102.474,330.867 100.013,330.341 99.052 C 330.197 98.789,329.980 98.121,329.859 97.568 C 329.737 97.015,329.508 96.563,329.350 96.563 C 329.192 96.563,329.063 96.401,329.063 96.205 C 329.063 96.008,328.557 94.777,327.939 93.470 C 325.679 88.690,325.057 87.506,324.634 87.184 C 324.519 87.097,324.328 86.640,324.210 86.169 C 324.091 85.698,323.886 85.313,323.753 85.313 C 323.619 85.313,323.424 85.066,323.319 84.766 C 323.213 84.465,322.778 83.656,322.352 82.969 C 321.926 82.281,321.487 81.473,321.377 81.172 C 321.267 80.871,321.053 80.625,320.901 80.625 C 320.749 80.625,320.625 80.497,320.625 80.340 C 320.625 80.183,320.133 79.307,319.531 78.394 C 318.930 77.480,318.438 76.554,318.438 76.335 C 318.438 76.116,318.293 75.938,318.117 75.938 C 317.941 75.937,317.660 75.621,317.493 75.234 C 317.050 74.209,316.499 73.412,315.703 72.641 C 315.316 72.266,315.000 71.822,315.000 71.653 C 315.000 71.485,314.719 71.092,314.375 70.781 C 314.031 70.470,313.750 70.109,313.750 69.978 C 313.750 69.847,313.475 69.412,313.139 69.011 C 312.471 68.214,310.464 65.763,309.127 64.112 C 308.662 63.537,307.613 62.328,306.797 61.425 C 305.980 60.522,305.313 59.702,305.313 59.602 C 305.313 59.363,295.636 49.688,295.397 49.688 C 295.295 49.688,294.404 48.949,293.416 48.047 C 289.856 44.797,289.001 44.063,288.780 44.063 C 288.656 44.063,288.150 43.641,287.656 43.125 C 287.162 42.609,286.644 42.187,286.504 42.188 C 286.364 42.188,286.004 41.974,285.703 41.713 C 283.979 40.219,282.849 39.375,282.570 39.375 C 282.397 39.375,282.173 39.164,282.074 38.906 C 281.976 38.648,281.735 38.437,281.539 38.438 C 281.344 38.438,280.671 38.051,280.044 37.578 C 278.521 36.430,277.766 35.956,277.109 35.736 C 276.809 35.635,276.563 35.424,276.563 35.268 C 276.563 35.112,276.246 34.848,275.859 34.681 C 275.112 34.357,274.418 33.956,273.075 33.071 C 270.597 31.437,257.879 25.012,257.109 25.005 C 256.809 25.002,256.563 24.871,256.563 24.712 C 256.563 24.554,256.141 24.332,255.625 24.219 C 255.109 24.105,254.688 23.883,254.688 23.725 C 254.688 23.567,254.367 23.438,253.976 23.437 C 253.584 23.437,252.987 23.245,252.648 23.009 C 252.309 22.773,251.565 22.478,250.995 22.354 C 250.424 22.230,249.581 21.932,249.120 21.691 C 248.658 21.451,248.035 21.253,247.734 21.252 C 247.434 21.251,247.188 21.125,247.188 20.973 C 247.188 20.821,246.555 20.601,245.781 20.485 C 245.008 20.369,244.375 20.158,244.375 20.016 C 244.375 19.875,243.742 19.664,242.969 19.548 C 242.195 19.432,241.563 19.223,241.563 19.084 C 241.563 18.944,240.865 18.738,240.013 18.625 C 239.161 18.512,238.389 18.299,238.298 18.152 C 238.207 18.006,237.360 17.789,236.415 17.671 C 235.470 17.553,234.623 17.337,234.533 17.190 C 234.442 17.044,233.456 16.826,232.340 16.707 C 231.225 16.587,230.313 16.379,230.313 16.244 C 230.313 16.109,229.434 15.899,228.359 15.777 C 227.285 15.655,226.266 15.445,226.094 15.309 C 225.922 15.174,224.516 14.960,222.969 14.835 C 221.422 14.709,220.084 14.495,219.997 14.359 C 219.909 14.223,217.975 14.010,215.700 13.887 C 213.424 13.763,211.563 13.541,211.563 13.393 C 211.563 13.246,206.359 13.125,200.000 13.125 C 193.380 13.125,188.438 13.245,188.438 13.405 M209.187 80.906 C 209.376 81.061,210.621 81.288,211.953 81.412 C 213.285 81.535,214.375 81.742,214.375 81.871 C 214.375 82.001,215.072 82.199,215.925 82.313 C 216.777 82.426,217.551 82.641,217.644 82.792 C 217.737 82.943,218.516 83.163,219.375 83.281 C 220.235 83.399,220.938 83.624,220.938 83.779 C 220.938 83.935,221.184 84.063,221.484 84.064 C 221.785 84.065,222.408 84.263,222.870 84.504 C 223.331 84.744,224.139 85.036,224.666 85.152 C 225.194 85.267,225.625 85.480,225.625 85.625 C 225.625 85.770,226.047 85.980,226.563 86.094 C 227.078 86.207,227.500 86.418,227.500 86.563 C 227.500 86.707,227.922 86.918,228.438 87.031 C 228.953 87.145,229.375 87.355,229.375 87.500 C 229.375 87.645,229.797 87.855,230.313 87.969 C 230.828 88.082,231.250 88.294,231.250 88.440 C 231.250 88.587,231.883 89.022,232.656 89.408 C 233.430 89.795,234.063 90.226,234.063 90.368 C 234.063 90.509,234.209 90.625,234.388 90.625 C 234.758 90.625,236.665 91.910,236.823 92.266 C 236.880 92.395,237.074 92.500,237.254 92.500 C 237.612 92.500,239.213 93.827,241.888 96.341 C 242.840 97.236,243.895 98.123,244.231 98.312 C 244.568 98.501,244.986 98.936,245.161 99.278 C 245.335 99.621,246.108 100.544,246.879 101.328 C 248.876 103.360,250.938 105.843,250.938 106.214 C 250.938 106.389,251.113 106.644,251.328 106.781 C 251.846 107.112,253.125 108.950,253.125 109.362 C 253.125 109.541,253.232 109.688,253.363 109.688 C 253.495 109.688,253.741 109.959,253.910 110.291 C 255.278 112.969,256.296 114.918,256.533 115.313 C 257.243 116.495,258.750 119.972,258.750 120.429 C 258.750 120.709,258.891 120.938,259.063 120.938 C 259.234 120.938,259.375 121.258,259.375 121.649 C 259.375 122.041,259.567 122.638,259.801 122.977 C 260.035 123.316,260.324 124.258,260.444 125.071 C 260.563 125.883,260.784 126.624,260.934 126.716 C 261.084 126.809,261.304 127.691,261.423 128.677 C 261.542 129.662,261.763 130.624,261.914 130.813 C 262.064 131.003,262.279 132.444,262.391 134.017 C 262.502 135.589,262.713 136.875,262.859 136.875 C 263.206 136.875,263.207 149.288,262.860 149.502 C 262.714 149.592,262.503 150.957,262.391 152.535 C 262.279 154.113,262.056 155.563,261.895 155.757 C 261.734 155.951,261.505 156.879,261.385 157.820 C 261.265 158.761,261.061 159.672,260.932 159.844 C 260.803 160.016,260.594 160.648,260.469 161.250 C 260.343 161.852,260.132 162.484,260.000 162.656 C 259.868 162.828,259.660 163.435,259.538 164.005 C 259.416 164.576,259.119 165.419,258.879 165.880 C 258.638 166.342,258.439 166.859,258.436 167.031 C 258.427 167.573,254.435 175.331,253.605 176.419 C 253.169 176.991,252.813 177.564,252.813 177.693 C 252.813 177.823,252.250 178.596,251.563 179.411 C 250.875 180.226,250.313 181.069,250.313 181.283 C 250.313 181.783,238.290 193.750,237.787 193.750 C 237.579 193.750,236.807 194.242,236.073 194.844 C 235.339 195.445,234.647 195.938,234.536 195.938 C 234.424 195.938,233.886 196.254,233.339 196.641 C 231.782 197.743,231.308 198.005,227.813 199.707 C 223.194 201.955,222.772 202.140,221.719 202.376 C 221.203 202.492,220.641 202.691,220.469 202.820 C 220.297 202.948,219.664 203.156,219.063 203.281 C 218.461 203.407,217.828 203.618,217.656 203.751 C 217.484 203.884,216.606 204.092,215.703 204.213 C 214.801 204.334,213.991 204.550,213.903 204.692 C 213.815 204.835,212.796 205.049,211.637 205.170 C 210.479 205.290,209.340 205.542,209.107 205.729 C 208.505 206.213,192.132 206.223,191.532 205.741 C 191.291 205.546,190.005 205.288,188.674 205.167 C 187.343 205.046,186.183 204.832,186.095 204.690 C 186.008 204.549,185.199 204.334,184.297 204.213 C 183.394 204.092,182.516 203.884,182.344 203.751 C 182.172 203.618,181.544 203.405,180.948 203.278 C 179.818 203.036,179.580 202.943,177.865 202.084 C 177.293 201.797,176.672 201.563,176.485 201.563 C 175.892 201.563,167.702 197.398,166.518 196.494 C 165.891 196.016,165.267 195.625,165.131 195.625 C 164.995 195.625,164.217 195.063,163.402 194.375 C 162.586 193.688,161.757 193.125,161.559 193.125 C 161.086 193.125,150.000 182.036,150.000 181.563 C 150.000 181.363,149.508 180.598,148.906 179.864 C 148.305 179.130,147.813 178.423,147.813 178.294 C 147.813 178.165,147.414 177.546,146.928 176.920 C 146.441 176.294,145.518 174.727,144.876 173.438 C 144.235 172.148,143.591 170.883,143.445 170.625 C 143.299 170.367,142.802 169.313,142.340 168.281 C 141.877 167.250,141.307 165.984,141.073 165.469 C 140.838 164.953,140.552 164.109,140.436 163.594 C 140.321 163.078,140.111 162.509,139.971 162.328 C 139.830 162.148,139.619 161.374,139.502 160.609 C 139.385 159.845,139.187 159.078,139.061 158.906 C 138.936 158.734,138.735 157.824,138.615 156.883 C 138.495 155.942,138.270 155.018,138.114 154.830 C 137.958 154.643,137.735 152.911,137.618 150.983 C 137.501 149.055,137.286 147.404,137.140 147.314 C 136.994 147.224,136.875 145.409,136.875 143.281 C 136.875 141.153,136.994 139.338,137.140 139.248 C 137.286 139.158,137.501 137.507,137.618 135.579 C 137.735 133.651,137.950 131.923,138.095 131.740 C 138.241 131.556,138.458 130.600,138.577 129.614 C 138.696 128.629,138.906 127.753,139.043 127.668 C 139.180 127.583,139.386 126.814,139.499 125.957 C 139.613 125.101,139.826 124.326,139.974 124.235 C 140.121 124.144,140.340 123.548,140.459 122.910 C 140.579 122.272,140.876 121.466,141.120 121.118 C 141.363 120.770,141.563 120.166,141.563 119.774 C 141.563 119.383,141.692 119.063,141.850 119.063 C 142.008 119.063,142.230 118.641,142.344 118.125 C 142.457 117.609,142.679 117.188,142.837 117.188 C 142.996 117.188,143.125 116.957,143.125 116.675 C 143.125 116.035,144.403 113.438,144.718 113.438 C 144.846 113.438,145.043 113.016,145.156 112.500 C 145.270 111.984,145.492 111.563,145.650 111.563 C 145.808 111.563,145.938 111.416,145.938 111.237 C 145.938 110.867,147.222 108.960,147.578 108.802 C 147.707 108.745,147.813 108.563,147.813 108.399 C 147.813 108.007,149.108 106.164,149.609 105.844 C 149.824 105.706,150.000 105.451,150.000 105.277 C 150.000 104.319,160.773 93.438,161.721 93.438 C 161.852 93.438,162.266 93.121,162.641 92.734 C 163.412 91.938,164.209 91.388,165.234 90.944 C 165.621 90.777,165.938 90.530,165.938 90.394 C 165.938 90.259,166.209 90.009,166.541 89.840 C 166.874 89.670,167.928 89.140,168.885 88.663 C 169.842 88.185,170.625 87.669,170.625 87.516 C 170.625 87.362,171.047 87.145,171.563 87.031 C 172.078 86.918,172.500 86.707,172.500 86.563 C 172.500 86.418,172.945 86.202,173.489 86.082 C 174.033 85.963,175.087 85.541,175.832 85.145 C 176.577 84.749,177.644 84.327,178.203 84.208 C 178.762 84.088,179.359 83.882,179.531 83.750 C 179.703 83.618,180.336 83.407,180.938 83.281 C 181.539 83.156,182.186 82.929,182.375 82.777 C 182.564 82.625,183.408 82.411,184.250 82.301 C 185.092 82.191,185.923 81.991,186.097 81.856 C 186.270 81.721,187.325 81.511,188.441 81.390 C 189.556 81.268,190.616 81.053,190.795 80.912 C 191.547 80.321,208.463 80.316,209.187 80.906 " stroke="none" fill="#3498db" fill-rule="evenodd"></path><path id="path1" d="M188.438 13.405 C 188.438 13.560,186.539 13.788,184.219 13.912 C 181.898 14.036,180.000 14.247,180.000 14.380 C 180.000 14.512,178.734 14.721,177.188 14.844 C 175.641 14.966,174.375 15.180,174.375 15.319 C 174.375 15.458,173.320 15.671,172.031 15.791 C 170.742 15.912,169.688 16.124,169.688 16.262 C 169.688 16.400,168.771 16.611,167.652 16.731 C 166.532 16.851,165.542 17.069,165.452 17.215 C 165.361 17.362,164.589 17.574,163.737 17.687 C 162.885 17.801,162.188 17.997,162.188 18.125 C 162.188 18.253,161.490 18.449,160.638 18.563 C 159.786 18.676,159.006 18.901,158.906 19.062 C 158.806 19.224,158.027 19.449,157.175 19.562 C 156.322 19.676,155.625 19.891,155.625 20.040 C 155.625 20.190,155.379 20.313,155.078 20.314 C 154.777 20.315,154.139 20.521,153.659 20.771 C 153.179 21.022,152.298 21.318,151.702 21.430 C 151.106 21.542,150.541 21.758,150.447 21.910 C 150.353 22.063,150.065 22.188,149.808 22.188 C 149.377 22.188,147.052 23.106,145.927 23.721 C 145.664 23.865,144.996 24.082,144.443 24.204 C 143.890 24.325,143.438 24.543,143.438 24.688 C 143.438 24.832,143.016 25.043,142.500 25.156 C 141.984 25.270,141.563 25.492,141.563 25.650 C 141.563 25.808,141.316 25.940,141.016 25.942 C 140.166 25.950,130.360 30.988,128.787 32.225 C 128.377 32.548,127.903 32.812,127.734 32.813 C 127.566 32.813,126.476 33.445,125.313 34.219 C 124.149 34.992,123.094 35.625,122.968 35.625 C 122.842 35.625,122.258 36.047,121.671 36.562 C 121.084 37.078,120.414 37.500,120.184 37.500 C 119.953 37.500,119.577 37.725,119.349 38.000 C 118.995 38.427,116.778 40.009,115.013 41.094 C 114.734 41.266,114.159 41.719,113.737 42.101 C 111.973 43.696,110.380 45.000,110.196 45.000 C 110.088 45.000,109.453 45.562,108.786 46.250 C 108.119 46.937,107.461 47.500,107.324 47.500 C 106.956 47.500,96.563 57.372,96.563 57.721 C 96.563 57.830,95.684 58.863,94.609 60.018 C 93.535 61.173,92.276 62.590,91.810 63.168 C 91.345 63.746,90.431 64.869,89.779 65.665 C 89.127 66.460,88.242 67.569,87.813 68.129 C 87.383 68.689,86.645 69.604,86.172 70.162 C 85.699 70.720,85.312 71.326,85.312 71.510 C 85.313 71.694,85.137 71.956,84.922 72.094 C 84.483 72.374,83.899 73.246,83.444 74.297 C 83.277 74.684,82.996 75.000,82.820 75.000 C 82.644 75.000,82.500 75.146,82.500 75.325 C 82.500 75.695,81.215 77.602,80.859 77.760 C 80.730 77.818,80.625 78.032,80.625 78.236 C 80.625 78.441,80.133 79.355,79.531 80.269 C 78.930 81.182,78.438 82.058,78.438 82.215 C 78.438 82.372,78.330 82.500,78.199 82.500 C 78.068 82.500,77.822 82.772,77.652 83.104 C 77.483 83.436,76.953 84.491,76.475 85.448 C 75.998 86.405,75.481 87.188,75.328 87.188 C 75.175 87.188,74.957 87.609,74.844 88.125 C 74.730 88.641,74.520 89.063,74.375 89.063 C 74.230 89.063,74.020 89.484,73.906 90.000 C 73.793 90.516,73.582 90.938,73.438 90.938 C 73.293 90.938,73.082 91.359,72.969 91.875 C 72.855 92.391,72.645 92.813,72.500 92.813 C 72.355 92.813,72.141 93.249,72.024 93.783 C 71.907 94.317,71.483 95.407,71.082 96.205 C 70.013 98.333,69.063 100.546,69.063 100.904 C 69.063 101.076,68.715 101.871,68.290 102.670 C 67.865 103.470,67.427 104.604,67.317 105.190 C 67.207 105.777,67.004 106.326,66.867 106.411 C 66.729 106.496,66.522 107.127,66.406 107.813 C 66.290 108.498,66.079 109.131,65.937 109.219 C 65.796 109.306,65.585 109.939,65.469 110.625 C 65.353 111.311,65.134 111.949,64.982 112.042 C 64.830 112.136,64.613 112.911,64.500 113.763 C 64.387 114.615,64.185 115.313,64.052 115.313 C 63.918 115.313,63.712 116.015,63.594 116.875 C 63.476 117.734,63.268 118.505,63.132 118.589 C 62.997 118.673,62.789 119.515,62.671 120.460 C 62.553 121.405,62.337 122.252,62.190 122.342 C 62.044 122.433,61.826 123.419,61.707 124.535 C 61.587 125.650,61.380 126.563,61.246 126.563 C 61.112 126.563,60.903 127.688,60.781 129.064 C 60.659 130.440,60.447 131.635,60.310 131.720 C 60.173 131.805,59.958 133.386,59.834 135.234 C 59.706 137.133,59.455 138.691,59.257 138.817 C 58.753 139.137,58.762 165.352,59.266 165.967 C 59.463 166.209,59.726 167.531,59.850 168.906 C 59.974 170.281,60.181 171.547,60.311 171.719 C 60.441 171.891,60.645 172.838,60.765 173.823 C 60.884 174.809,61.098 175.687,61.241 175.776 C 61.384 175.864,61.599 176.780,61.719 177.812 C 61.838 178.843,62.055 179.688,62.199 179.688 C 62.344 179.687,62.558 180.355,62.677 181.172 C 62.795 181.988,63.002 182.797,63.136 182.969 C 63.271 183.141,63.480 183.810,63.601 184.457 C 63.722 185.103,63.946 185.709,64.098 185.803 C 64.250 185.897,64.376 186.282,64.377 186.659 C 64.378 187.036,64.589 187.747,64.846 188.239 C 65.102 188.731,65.313 189.364,65.314 189.645 C 65.315 189.926,65.513 190.533,65.754 190.995 C 65.994 191.456,66.291 192.299,66.413 192.870 C 66.535 193.440,66.743 194.047,66.875 194.219 C 67.007 194.391,67.213 194.988,67.332 195.547 C 67.452 196.105,67.679 196.563,67.837 196.563 C 67.996 196.563,68.126 196.809,68.127 197.109 C 68.128 197.410,68.326 198.033,68.566 198.495 C 68.807 198.956,69.098 199.764,69.214 200.291 C 69.330 200.819,69.554 201.250,69.712 201.250 C 69.871 201.250,70.001 201.496,70.002 201.797 C 70.003 202.098,70.201 202.721,70.441 203.182 C 70.682 203.643,70.973 204.452,71.089 204.979 C 71.205 205.506,71.418 205.938,71.563 205.938 C 71.707 205.938,71.918 206.359,72.031 206.875 C 72.145 207.391,72.367 207.813,72.525 207.813 C 72.683 207.813,72.814 208.059,72.816 208.359 C 72.819 208.660,73.228 209.711,73.727 210.694 C 74.226 211.677,74.727 212.908,74.842 213.428 C 74.956 213.949,75.168 214.375,75.312 214.375 C 75.457 214.375,75.668 214.797,75.781 215.313 C 75.895 215.828,76.105 216.250,76.250 216.250 C 76.395 216.250,76.605 216.672,76.719 217.188 C 76.832 217.703,77.043 218.125,77.188 218.125 C 77.332 218.125,77.543 218.547,77.656 219.063 C 77.770 219.578,77.980 220.000,78.125 220.000 C 78.270 220.000,78.480 220.422,78.594 220.938 C 78.707 221.453,78.918 221.875,79.063 221.875 C 79.207 221.875,79.418 222.297,79.531 222.813 C 79.645 223.328,79.855 223.750,80.000 223.750 C 80.145 223.750,80.355 224.172,80.469 224.688 C 80.582 225.203,80.793 225.625,80.938 225.625 C 81.082 225.625,81.293 226.047,81.406 226.563 C 81.520 227.078,81.730 227.500,81.875 227.500 C 82.020 227.500,82.230 227.922,82.344 228.438 C 82.457 228.953,82.672 229.375,82.822 229.375 C 82.972 229.375,83.672 230.535,84.378 231.953 C 85.758 234.727,86.295 235.691,86.599 235.938 C 86.704 236.023,86.899 236.445,87.031 236.875 C 87.164 237.305,87.358 237.727,87.464 237.813 C 87.748 238.044,88.323 239.017,89.264 240.859 C 89.725 241.762,90.208 242.500,90.338 242.500 C 90.469 242.500,90.668 242.922,90.781 243.438 C 90.895 243.953,91.107 244.375,91.253 244.375 C 91.399 244.375,91.835 245.008,92.221 245.781 C 92.607 246.555,93.028 247.188,93.156 247.188 C 93.283 247.188,93.480 247.609,93.594 248.125 C 93.707 248.641,93.929 249.063,94.087 249.063 C 94.246 249.063,94.375 249.209,94.375 249.388 C 94.375 249.708,95.581 251.567,95.991 251.878 C 96.106 251.966,96.297 252.423,96.415 252.894 C 96.534 253.365,96.746 253.750,96.887 253.750 C 97.028 253.750,97.460 254.383,97.846 255.156 C 98.232 255.930,98.648 256.563,98.769 256.563 C 98.890 256.563,99.080 256.809,99.190 257.109 C 99.300 257.410,99.739 258.219,100.165 258.906 C 100.591 259.594,101.026 260.402,101.131 260.703 C 101.237 261.004,101.437 261.250,101.577 261.250 C 101.717 261.250,102.147 261.883,102.533 262.656 C 102.920 263.430,103.351 264.062,103.493 264.062 C 103.634 264.063,103.750 264.209,103.750 264.388 C 103.750 264.708,104.956 266.567,105.366 266.878 C 105.481 266.966,105.672 267.423,105.790 267.894 C 105.909 268.365,106.134 268.750,106.292 268.750 C 106.449 268.750,106.715 269.066,106.882 269.453 C 107.276 270.365,107.899 271.355,108.231 271.598 C 108.548 271.830,109.289 273.072,109.563 273.828 C 109.671 274.129,109.888 274.375,110.044 274.375 C 110.200 274.375,110.465 274.691,110.632 275.078 C 111.026 275.990,111.649 276.980,111.981 277.223 C 112.298 277.455,113.039 278.697,113.313 279.453 C 113.421 279.754,113.638 280.000,113.794 280.000 C 113.950 280.000,114.215 280.316,114.382 280.703 C 114.836 281.754,115.421 282.626,115.859 282.906 C 116.074 283.044,116.250 283.306,116.250 283.490 C 116.250 283.674,116.677 284.334,117.198 284.959 C 118.624 286.665,118.750 286.833,118.750 287.031 C 118.750 287.268,120.078 289.161,120.419 289.411 C 120.735 289.642,121.477 290.884,121.750 291.641 C 121.859 291.941,122.076 292.187,122.232 292.188 C 122.388 292.188,122.652 292.504,122.819 292.891 C 123.263 293.916,123.813 294.713,124.609 295.484 C 124.996 295.859,125.313 296.260,125.313 296.377 C 125.312 296.635,126.618 298.520,126.981 298.786 C 127.230 298.968,127.826 299.915,128.330 300.931 C 128.456 301.185,128.883 301.693,129.280 302.060 C 129.676 302.427,130.000 302.866,130.000 303.034 C 130.000 303.203,130.281 303.595,130.625 303.906 C 130.969 304.217,131.250 304.646,131.250 304.859 C 131.250 305.072,131.461 305.327,131.719 305.426 C 131.977 305.524,132.187 305.767,132.187 305.965 C 132.187 306.286,133.275 307.730,134.539 309.089 C 134.793 309.361,135.000 309.694,135.000 309.829 C 135.000 310.054,136.253 311.658,137.352 312.839 C 137.605 313.111,137.812 313.444,137.812 313.579 C 137.813 313.804,139.066 315.408,140.164 316.589 C 140.418 316.861,140.625 317.194,140.625 317.329 C 140.625 317.554,141.878 319.158,142.977 320.339 C 143.230 320.611,143.437 320.944,143.437 321.079 C 143.438 321.304,144.691 322.908,145.789 324.089 C 146.043 324.361,146.250 324.721,146.250 324.890 C 146.250 325.058,146.672 325.600,147.187 326.094 C 147.703 326.588,148.125 327.113,148.125 327.261 C 148.125 327.409,148.477 327.856,148.906 328.254 C 149.336 328.652,149.688 329.085,149.688 329.217 C 149.687 329.426,150.993 331.044,152.357 332.526 C 152.607 332.798,152.812 333.159,152.813 333.327 C 152.813 333.495,153.234 334.037,153.750 334.531 C 154.266 335.025,154.693 335.579,154.701 335.762 C 154.708 335.944,155.130 336.439,155.638 336.860 C 156.147 337.282,156.562 337.783,156.563 337.974 C 156.563 338.164,156.984 338.725,157.500 339.219 C 158.016 339.713,158.443 340.266,158.451 340.449 C 158.458 340.632,158.880 341.126,159.388 341.548 C 159.897 341.969,160.313 342.470,160.313 342.661 C 160.313 342.852,160.734 343.412,161.250 343.906 C 161.766 344.400,162.193 344.954,162.201 345.137 C 162.208 345.319,162.630 345.814,163.138 346.235 C 163.647 346.657,164.063 347.158,164.063 347.349 C 164.063 347.539,164.484 348.100,165.000 348.594 C 165.516 349.088,165.943 349.641,165.951 349.824 C 165.958 350.007,166.380 350.501,166.888 350.923 C 167.397 351.344,167.813 351.845,167.813 352.036 C 167.813 352.227,168.234 352.787,168.750 353.281 C 169.266 353.775,169.687 354.294,169.688 354.434 C 169.688 354.574,170.250 355.234,170.938 355.901 C 171.625 356.568,172.188 357.244,172.188 357.402 C 172.188 357.560,172.680 358.167,173.281 358.750 C 173.883 359.333,174.375 359.923,174.375 360.062 C 174.375 360.200,174.937 360.859,175.625 361.526 C 176.312 362.193,176.875 362.869,176.875 363.027 C 176.875 363.185,177.367 363.792,177.969 364.375 C 178.570 364.958,179.062 365.551,179.063 365.692 C 179.063 365.833,179.695 366.554,180.469 367.295 C 181.242 368.037,181.875 368.781,181.875 368.950 C 181.875 369.120,182.297 369.662,182.812 370.156 C 183.328 370.650,183.750 371.171,183.750 371.314 C 183.750 371.456,184.383 372.179,185.156 372.920 C 185.930 373.662,186.563 374.403,186.563 374.569 C 186.562 374.734,187.195 375.491,187.969 376.250 C 188.742 377.009,189.375 377.739,189.375 377.871 C 189.375 378.003,190.148 378.873,191.094 379.803 C 192.039 380.734,192.813 381.620,192.813 381.774 C 192.813 382.179,196.049 385.313,196.468 385.313 C 196.663 385.313,196.882 385.488,196.953 385.703 C 197.045 385.978,197.944 386.094,200.000 386.094 C 202.056 386.094,202.955 385.978,203.047 385.703 C 203.118 385.488,203.344 385.313,203.549 385.313 C 203.977 385.313,208.750 380.597,208.750 380.174 C 208.750 380.019,209.383 379.287,210.156 378.545 C 210.930 377.804,211.562 377.084,211.563 376.945 C 211.563 376.806,212.195 376.072,212.969 375.313 C 213.742 374.553,214.375 373.797,214.375 373.631 C 214.375 373.466,215.008 372.724,215.781 371.983 C 216.555 371.242,217.188 370.522,217.188 370.383 C 217.188 370.244,217.820 369.509,218.594 368.750 C 219.367 367.991,220.000 367.239,220.000 367.078 C 220.000 366.917,220.414 366.349,220.920 365.815 C 223.087 363.525,224.688 361.633,224.688 361.359 C 224.688 361.197,225.103 360.719,225.612 360.298 C 226.120 359.876,226.542 359.383,226.549 359.202 C 226.557 359.021,227.055 358.396,227.656 357.812 C 228.258 357.229,228.750 356.623,228.750 356.465 C 228.750 356.306,229.313 355.631,230.000 354.964 C 230.688 354.297,231.250 353.636,231.250 353.496 C 231.250 353.356,231.672 352.838,232.188 352.344 C 232.703 351.850,233.125 351.289,233.125 351.099 C 233.125 350.908,233.541 350.407,234.049 349.985 C 234.558 349.564,234.979 349.071,234.987 348.889 C 234.994 348.708,235.492 348.083,236.094 347.500 C 236.695 346.917,237.188 346.318,237.188 346.169 C 237.188 346.020,237.533 345.520,237.955 345.058 C 239.626 343.229,240.938 341.632,240.938 341.427 C 240.937 341.308,241.285 340.832,241.709 340.371 C 243.221 338.727,244.375 337.257,244.375 336.975 C 244.375 336.818,244.791 336.344,245.299 335.923 C 245.808 335.501,246.229 335.007,246.237 334.824 C 246.244 334.641,246.672 334.088,247.188 333.594 C 247.703 333.100,248.125 332.558,248.125 332.390 C 248.125 332.221,248.330 331.861,248.581 331.589 C 249.945 330.107,251.250 328.488,251.250 328.279 C 251.250 328.148,251.602 327.715,252.031 327.316 C 252.461 326.918,252.813 326.467,252.813 326.313 C 252.813 326.160,253.094 325.780,253.438 325.469 C 253.781 325.158,254.063 324.775,254.063 324.619 C 254.062 324.463,254.410 323.957,254.834 323.496 C 256.273 321.931,257.500 320.387,257.500 320.141 C 257.500 320.006,257.707 319.673,257.961 319.401 C 259.059 318.221,260.313 316.617,260.313 316.391 C 260.313 316.256,260.520 315.923,260.773 315.651 C 261.872 314.471,263.125 312.867,263.125 312.641 C 263.125 312.506,263.332 312.173,263.586 311.901 C 264.850 310.542,265.938 309.098,265.938 308.777 C 265.937 308.580,266.148 308.337,266.406 308.238 C 266.664 308.139,266.875 307.884,266.875 307.671 C 266.875 307.458,267.156 307.030,267.500 306.719 C 267.844 306.408,268.125 306.015,268.125 305.847 C 268.125 305.678,268.449 305.240,268.845 304.873 C 269.242 304.505,269.669 303.997,269.795 303.743 C 270.184 302.959,270.763 302.030,271.161 301.551 C 271.370 301.300,271.968 300.583,272.489 299.959 C 273.011 299.334,273.438 298.674,273.438 298.490 C 273.438 298.306,273.624 298.044,273.852 297.906 C 274.079 297.769,274.366 297.445,274.489 297.188 C 274.937 296.246,275.575 295.223,275.831 295.036 C 276.194 294.770,277.500 292.885,277.500 292.627 C 277.500 292.510,277.816 292.109,278.203 291.734 C 278.999 290.963,279.550 290.166,279.993 289.141 C 280.160 288.754,280.425 288.438,280.581 288.438 C 280.737 288.438,280.954 288.191,281.062 287.891 C 281.336 287.134,282.077 285.892,282.394 285.661 C 282.819 285.350,284.063 283.489,284.063 283.164 C 284.063 282.999,284.168 282.818,284.297 282.760 C 284.639 282.608,285.938 280.702,285.938 280.351 C 285.938 280.187,286.043 280.005,286.172 279.948 C 286.514 279.796,287.813 277.889,287.813 277.539 C 287.813 277.374,287.918 277.193,288.047 277.135 C 288.389 276.983,289.688 275.077,289.687 274.726 C 289.687 274.562,289.793 274.380,289.922 274.323 C 290.264 274.171,291.563 272.264,291.563 271.914 C 291.563 271.749,291.668 271.568,291.797 271.510 C 292.153 271.352,293.438 269.445,293.438 269.075 C 293.438 268.896,293.553 268.750,293.695 268.750 C 293.836 268.750,294.268 268.117,294.654 267.344 C 295.040 266.570,295.471 265.937,295.610 265.937 C 295.750 265.937,295.955 265.691,296.065 265.391 C 296.436 264.379,297.219 263.125,297.481 263.125 C 297.623 263.125,297.826 262.879,297.931 262.578 C 298.037 262.277,298.472 261.469,298.898 260.781 C 299.324 260.094,299.763 259.285,299.873 258.984 C 299.983 258.684,300.172 258.437,300.294 258.437 C 300.415 258.437,300.830 257.805,301.217 257.031 C 301.603 256.258,302.034 255.625,302.176 255.625 C 302.317 255.625,302.529 255.240,302.647 254.769 C 302.765 254.298,302.956 253.841,303.072 253.753 C 303.481 253.442,304.688 251.583,304.688 251.263 C 304.688 251.084,304.813 250.938,304.966 250.938 C 305.119 250.938,305.341 250.552,305.460 250.081 C 305.578 249.610,305.769 249.153,305.884 249.066 C 306.294 248.754,307.500 246.895,307.500 246.575 C 307.500 246.396,307.629 246.250,307.788 246.250 C 307.946 246.250,308.168 245.828,308.281 245.313 C 308.395 244.797,308.592 244.375,308.719 244.375 C 308.847 244.375,309.268 243.742,309.654 242.969 C 310.040 242.195,310.476 241.562,310.622 241.563 C 310.768 241.563,310.980 241.141,311.094 240.625 C 311.207 240.109,311.413 239.688,311.551 239.688 C 311.689 239.687,311.890 239.441,311.996 239.141 C 312.103 238.840,312.747 237.609,313.428 236.406 C 314.108 235.203,314.756 233.973,314.869 233.672 C 314.981 233.371,315.186 233.125,315.324 233.125 C 315.462 233.125,315.668 232.703,315.781 232.188 C 315.895 231.672,316.101 231.250,316.241 231.250 C 316.381 231.250,316.591 230.865,316.710 230.394 C 316.828 229.923,317.019 229.466,317.134 229.378 C 317.630 229.001,324.375 215.627,324.375 215.021 C 324.375 214.813,324.586 214.432,324.844 214.174 C 325.102 213.916,325.313 213.434,325.313 213.103 C 325.313 212.771,325.442 212.500,325.600 212.500 C 325.758 212.500,325.980 212.078,326.094 211.563 C 326.207 211.047,326.418 210.625,326.563 210.625 C 326.707 210.625,326.919 210.199,327.033 209.678 C 327.148 209.158,327.649 207.927,328.148 206.944 C 328.647 205.961,329.056 204.910,329.059 204.609 C 329.061 204.309,329.192 204.063,329.350 204.063 C 329.508 204.063,329.736 203.617,329.855 203.074 C 329.974 202.530,330.396 201.475,330.792 200.730 C 331.189 199.985,331.605 198.954,331.719 198.438 C 331.832 197.922,332.038 197.500,332.177 197.500 C 332.316 197.500,332.524 196.867,332.640 196.094 C 332.756 195.320,332.976 194.687,333.130 194.688 C 333.284 194.688,333.502 194.194,333.615 193.590 C 333.728 192.987,333.933 192.424,334.071 192.339 C 334.208 192.254,334.415 191.623,334.531 190.938 C 334.647 190.252,334.858 189.619,335.000 189.531 C 335.142 189.444,335.353 188.811,335.469 188.125 C 335.585 187.439,335.804 186.801,335.956 186.708 C 336.108 186.614,336.324 185.839,336.437 184.987 C 336.551 184.135,336.750 183.437,336.880 183.437 C 337.010 183.437,337.216 182.770,337.338 181.953 C 337.459 181.137,337.668 180.328,337.802 180.156 C 337.936 179.984,338.142 179.179,338.260 178.367 C 338.377 177.554,338.596 176.814,338.746 176.721 C 338.896 176.628,339.116 175.746,339.235 174.761 C 339.355 173.775,339.563 172.828,339.699 172.656 C 339.835 172.484,340.047 171.289,340.170 170.000 C 340.292 168.711,340.506 167.513,340.644 167.337 C 340.782 167.162,340.995 165.435,341.117 163.500 C 341.240 161.565,341.460 159.907,341.608 159.816 C 341.956 159.600,341.957 147.188,341.609 147.188 C 341.462 147.188,341.242 144.905,341.119 142.115 C 340.997 139.325,340.782 136.970,340.642 136.881 C 340.502 136.792,340.285 135.417,340.160 133.826 C 340.035 132.235,339.822 130.865,339.687 130.781 C 339.551 130.697,339.341 129.503,339.219 128.127 C 339.097 126.751,338.888 125.625,338.754 125.625 C 338.620 125.625,338.413 124.712,338.293 123.597 C 338.174 122.482,337.956 121.495,337.810 121.405 C 337.663 121.314,337.447 120.467,337.329 119.522 C 337.211 118.577,336.994 117.730,336.848 117.639 C 336.701 117.549,336.488 116.777,336.375 115.925 C 336.262 115.072,336.063 114.375,335.933 114.375 C 335.803 114.375,335.602 113.745,335.486 112.976 C 335.371 112.207,335.144 111.495,334.982 111.395 C 334.820 111.295,334.687 110.905,334.686 110.528 C 334.685 110.152,334.479 109.451,334.229 108.971 C 333.978 108.491,333.682 107.612,333.571 107.018 C 333.459 106.424,333.252 105.938,333.109 105.938 C 332.967 105.938,332.756 105.305,332.640 104.531 C 332.524 103.758,332.304 103.125,332.152 103.125 C 332.000 103.125,331.875 102.977,331.875 102.795 C 331.875 102.474,330.867 100.013,330.341 99.052 C 330.197 98.789,329.980 98.121,329.859 97.568 C 329.737 97.015,329.508 96.563,329.350 96.563 C 329.192 96.563,329.063 96.401,329.063 96.205 C 329.063 96.008,328.557 94.777,327.939 93.470 C 325.679 88.690,325.057 87.506,324.634 87.184 C 324.519 87.097,324.328 86.640,324.210 86.169 C 324.091 85.698,323.886 85.313,323.753 85.313 C 323.619 85.313,323.424 85.066,323.319 84.766 C 323.213 84.465,322.778 83.656,322.352 82.969 C 321.926 82.281,321.487 81.473,321.377 81.172 C 321.267 80.871,321.053 80.625,320.901 80.625 C 320.749 80.625,320.625 80.497,320.625 80.340 C 320.625 80.183,320.133 79.307,319.531 78.394 C 318.930 77.480,318.438 76.554,318.438 76.335 C 318.438 76.116,318.293 75.938,318.117 75.938 C 317.941 75.937,317.660 75.621,317.493 75.234 C 317.050 74.209,316.499 73.412,315.703 72.641 C 315.316 72.266,315.000 71.822,315.000 71.653 C 315.000 71.485,314.719 71.092,314.375 70.781 C 314.031 70.470,313.750 70.109,313.750 69.978 C 313.750 69.847,313.475 69.412,313.139 69.011 C 312.471 68.214,310.464 65.763,309.127 64.112 C 308.662 63.537,307.613 62.328,306.797 61.425 C 305.980 60.522,305.313 59.702,305.313 59.602 C 305.313 59.363,295.636 49.688,295.397 49.688 C 295.295 49.688,294.404 48.949,293.416 48.047 C 289.856 44.797,289.001 44.063,288.780 44.063 C 288.656 44.063,288.150 43.641,287.656 43.125 C 287.162 42.609,286.644 42.187,286.504 42.188 C 286.364 42.188,286.004 41.974,285.703 41.713 C 283.979 40.219,282.849 39.375,282.570 39.375 C 282.397 39.375,282.173 39.164,282.074 38.906 C 281.976 38.648,281.735 38.437,281.539 38.438 C 281.344 38.438,280.671 38.051,280.044 37.578 C 278.521 36.430,277.766 35.956,277.109 35.736 C 276.809 35.635,276.563 35.424,276.563 35.268 C 276.563 35.112,276.246 34.848,275.859 34.681 C 275.112 34.357,274.418 33.956,273.075 33.071 C 270.597 31.437,257.879 25.012,257.109 25.005 C 256.809 25.002,256.563 24.871,256.563 24.712 C 256.563 24.554,256.141 24.332,255.625 24.219 C 255.109 24.105,254.688 23.883,254.688 23.725 C 254.688 23.567,254.367 23.438,253.976 23.437 C 253.584 23.437,252.987 23.245,252.648 23.009 C 252.309 22.773,251.565 22.478,250.995 22.354 C 250.424 22.230,249.581 21.932,249.120 21.691 C 248.658 21.451,248.035 21.253,247.734 21.252 C 247.434 21.251,247.188 21.125,247.188 20.973 C 247.188 20.821,246.555 20.601,245.781 20.485 C 245.008 20.369,244.375 20.158,244.375 20.016 C 244.375 19.875,243.742 19.664,242.969 19.548 C 242.195 19.432,241.563 19.223,241.563 19.084 C 241.563 18.944,240.865 18.738,240.013 18.625 C 239.161 18.512,238.389 18.299,238.298 18.152 C 238.207 18.006,237.360 17.789,236.415 17.671 C 235.470 17.553,234.623 17.337,234.533 17.190 C 234.442 17.044,233.456 16.826,232.340 16.707 C 231.225 16.587,230.313 16.379,230.313 16.244 C 230.313 16.109,229.434 15.899,228.359 15.777 C 227.285 15.655,226.266 15.445,226.094 15.309 C 225.922 15.174,224.516 14.960,222.969 14.835 C 221.422 14.709,220.084 14.495,219.997 14.359 C 219.909 14.223,217.975 14.010,215.700 13.887 C 213.424 13.763,211.563 13.541,211.563 13.393 C 211.563 13.246,206.359 13.125,200.000 13.125 C 193.380 13.125,188.438 13.245,188.438 13.405 M209.187 80.906 C 209.376 81.061,210.621 81.288,211.953 81.412 C 213.285 81.535,214.375 81.742,214.375 81.871 C 214.375 82.001,215.072 82.199,215.925 82.313 C 216.777 82.426,217.551 82.641,217.644 82.792 C 217.737 82.943,218.516 83.163,219.375 83.281 C 220.235 83.399,220.938 83.624,220.938 83.779 C 220.938 83.935,221.184 84.063,221.484 84.064 C 221.785 84.065,222.408 84.263,222.870 84.504 C 223.331 84.744,224.139 85.036,224.666 85.152 C 225.194 85.267,225.625 85.480,225.625 85.625 C 225.625 85.770,226.047 85.980,226.563 86.094 C 227.078 86.207,227.500 86.418,227.500 86.563 C 227.500 86.707,227.922 86.918,228.438 87.031 C 228.953 87.145,229.375 87.355,229.375 87.500 C 229.375 87.645,229.797 87.855,230.313 87.969 C 230.828 88.082,231.250 88.294,231.250 88.440 C 231.250 88.587,231.883 89.022,232.656 89.408 C 233.430 89.795,234.063 90.226,234.063 90.368 C 234.063 90.509,234.209 90.625,234.388 90.625 C 234.758 90.625,236.665 91.910,236.823 92.266 C 236.880 92.395,237.074 92.500,237.254 92.500 C 237.612 92.500,239.213 93.827,241.888 96.341 C 242.840 97.236,243.895 98.123,244.231 98.312 C 244.568 98.501,244.986 98.936,245.161 99.278 C 245.335 99.621,246.108 100.544,246.879 101.328 C 248.876 103.360,250.938 105.843,250.938 106.214 C 250.938 106.389,251.113 106.644,251.328 106.781 C 251.846 107.112,253.125 108.950,253.125 109.362 C 253.125 109.541,253.232 109.688,253.363 109.688 C 253.495 109.688,253.741 109.959,253.910 110.291 C 255.278 112.969,256.296 114.918,256.533 115.313 C 257.243 116.495,258.750 119.972,258.750 120.429 C 258.750 120.709,258.891 120.938,259.063 120.938 C 259.234 120.938,259.375 121.258,259.375 121.649 C 259.375 122.041,259.567 122.638,259.801 122.977 C 260.035 123.316,260.324 124.258,260.444 125.071 C 260.563 125.883,260.784 126.624,260.934 126.716 C 261.084 126.809,261.304 127.691,261.423 128.677 C 261.542 129.662,261.763 130.624,261.914 130.813 C 262.064 131.003,262.279 132.444,262.391 134.017 C 262.502 135.589,262.713 136.875,262.859 136.875 C 263.206 136.875,263.207 149.288,262.860 149.502 C 262.714 149.592,262.503 150.957,262.391 152.535 C 262.279 154.113,262.056 155.563,261.895 155.757 C 261.734 155.951,261.505 156.879,261.385 157.820 C 261.265 158.761,261.061 159.672,260.932 159.844 C 260.803 160.016,260.594 160.648,260.469 161.250 C 260.343 161.852,260.132 162.484,260.000 162.656 C 259.868 162.828,259.660 163.435,259.538 164.005 C 259.416 164.576,259.119 165.419,258.879 165.880 C 258.638 166.342,258.439 166.859,258.436 167.031 C 258.427 167.573,254.435 175.331,253.605 176.419 C 253.169 176.991,252.813 177.564,252.813 177.693 C 252.813 177.823,252.250 178.596,251.563 179.411 C 250.875 180.226,250.313 181.069,250.313 181.283 C 250.313 181.783,238.290 193.750,237.787 193.750 C 237.579 193.750,236.807 194.242,236.073 194.844 C 235.339 195.445,234.647 195.938,234.536 195.938 C 234.424 195.938,233.886 196.254,233.339 196.641 C 231.782 197.743,231.308 198.005,227.813 199.707 C 223.194 201.955,222.772 202.140,221.719 202.376 C 221.203 202.492,220.641 202.691,220.469 202.820 C 220.297 202.948,219.664 203.156,219.063 203.281 C 218.461 203.407,217.828 203.618,217.656 203.751 C 217.484 203.884,216.606 204.092,215.703 204.213 C 214.801 204.334,213.991 204.550,213.903 204.692 C 213.815 204.835,212.796 205.049,211.637 205.170 C 210.479 205.290,209.340 205.542,209.107 205.729 C 208.505 206.213,192.132 206.223,191.532 205.741 C 191.291 205.546,190.005 205.288,188.674 205.167 C 187.343 205.046,186.183 204.832,186.095 204.690 C 186.008 204.549,185.199 204.334,184.297 204.213 C 183.394 204.092,182.516 203.884,182.344 203.751 C 182.172 203.618,181.544 203.405,180.948 203.278 C 179.818 203.036,179.580 202.943,177.865 202.084 C 177.293 201.797,176.672 201.563,176.485 201.563 C 175.892 201.563,167.702 197.398,166.518 196.494 C 165.891 196.016,165.267 195.625,165.131 195.625 C 164.995 195.625,164.217 195.063,163.402 194.375 C 162.586 193.688,161.757 193.125,161.559 193.125 C 161.086 193.125,150.000 182.036,150.000 181.563 C 150.000 181.363,149.508 180.598,148.906 179.864 C 148.305 179.130,147.813 178.423,147.813 178.294 C 147.813 178.165,147.414 177.546,146.928 176.920 C 146.441 176.294,145.518 174.727,144.876 173.438 C 144.235 172.148,143.591 170.883,143.445 170.625 C 143.299 170.367,142.802 169.313,142.340 168.281 C 141.877 167.250,141.307 165.984,141.073 165.469 C 140.838 164.953,140.552 164.109,140.436 163.594 C 140.321 163.078,140.111 162.509,139.971 162.328 C 139.830 162.148,139.619 161.374,139.502 160.609 C 139.385 159.845,139.187 159.078,139.061 158.906 C 138.936 158.734,138.735 157.824,138.615 156.883 C 138.495 155.942,138.270 155.018,138.114 154.830 C 137.958 154.643,137.735 152.911,137.618 150.983 C 137.501 149.055,137.286 147.404,137.140 147.314 C 136.994 147.224,136.875 145.409,136.875 143.281 C 136.875 141.153,136.994 139.338,137.140 139.248 C 137.286 139.158,137.501 137.507,137.618 135.579 C 137.735 133.651,137.950 131.923,138.095 131.740 C 138.241 131.556,138.458 130.600,138.577 129.614 C 138.696 128.629,138.906 127.753,139.043 127.668 C 139.180 127.583,139.386 126.814,139.499 125.957 C 139.613 125.101,139.826 124.326,139.974 124.235 C 140.121 124.144,140.340 123.548,140.459 122.910 C 140.579 122.272,140.876 121.466,141.120 121.118 C 141.363 120.770,141.563 120.166,141.563 119.774 C 141.563 119.383,141.692 119.063,141.850 119.063 C 142.008 119.063,142.230 118.641,142.344 118.125 C 142.457 117.609,142.679 117.188,142.837 117.188 C 142.996 117.188,143.125 116.957,143.125 116.675 C 143.125 116.035,144.403 113.438,144.718 113.438 C 144.846 113.438,145.043 113.016,145.156 112.500 C 145.270 111.984,145.492 111.563,145.650 111.563 C 145.808 111.563,145.938 111.416,145.938 111.237 C 145.938 110.867,147.222 108.960,147.578 108.802 C 147.707 108.745,147.813 108.563,147.813 108.399 C 147.813 108.007,149.108 106.164,149.609 105.844 C 149.824 105.706,150.000 105.451,150.000 105.277 C 150.000 104.319,160.773 93.438,161.721 93.438 C 161.852 93.438,162.266 93.121,162.641 92.734 C 163.412 91.938,164.209 91.388,165.234 90.944 C 165.621 90.777,165.938 90.530,165.938 90.394 C 165.938 90.259,166.209 90.009,166.541 89.840 C 166.874 89.670,167.928 89.140,168.885 88.663 C 169.842 88.185,170.625 87.669,170.625 87.516 C 170.625 87.362,171.047 87.145,171.563 87.031 C 172.078 86.918,172.500 86.707,172.500 86.563 C 172.500 86.418,172.945 86.202,173.489 86.082 C 174.033 85.963,175.087 85.541,175.832 85.145 C 176.577 84.749,177.644 84.327,178.203 84.208 C 178.762 84.088,179.359 83.882,179.531 83.750 C 179.703 83.618,180.336 83.407,180.938 83.281 C 181.539 83.156,182.186 82.929,182.375 82.777 C 182.564 82.625,183.408 82.411,184.250 82.301 C 185.092 82.191,185.923 81.991,186.097 81.856 C 186.270 81.721,187.325 81.511,188.441 81.390 C 189.556 81.268,190.616 81.053,190.795 80.912 C 191.547 80.321,208.463 80.316,209.187 80.906 " stroke="none" fill="#3498db" fill-rule="evenodd"></path><path id="path2" d="M188.438 13.405 C 188.438 13.560,186.539 13.788,184.219 13.912 C 181.898 14.036,180.000 14.247,180.000 14.380 C 180.000 14.512,178.734 14.721,177.188 14.844 C 175.641 14.966,174.375 15.180,174.375 15.319 C 174.375 15.458,173.320 15.671,172.031 15.791 C 170.742 15.912,169.688 16.124,169.688 16.262 C 169.688 16.400,168.771 16.611,167.652 16.731 C 166.532 16.851,165.542 17.069,165.452 17.215 C 165.361 17.362,164.589 17.574,163.737 17.687 C 162.885 17.801,162.188 17.997,162.188 18.125 C 162.188 18.253,161.490 18.449,160.638 18.563 C 159.786 18.676,159.006 18.901,158.906 19.062 C 158.806 19.224,158.027 19.449,157.175 19.562 C 156.322 19.676,155.625 19.891,155.625 20.040 C 155.625 20.190,155.379 20.313,155.078 20.314 C 154.777 20.315,154.139 20.521,153.659 20.771 C 153.179 21.022,152.298 21.318,151.702 21.430 C 151.106 21.542,150.541 21.758,150.447 21.910 C 150.353 22.063,150.065 22.188,149.808 22.188 C 149.377 22.188,147.052 23.106,145.927 23.721 C 145.664 23.865,144.996 24.082,144.443 24.204 C 143.890 24.325,143.438 24.543,143.438 24.688 C 143.438 24.832,143.016 25.043,142.500 25.156 C 141.984 25.270,141.563 25.492,141.563 25.650 C 141.563 25.808,141.316 25.940,141.016 25.942 C 140.166 25.950,130.360 30.988,128.787 32.225 C 128.377 32.548,127.903 32.812,127.734 32.813 C 127.566 32.813,126.476 33.445,125.313 34.219 C 124.149 34.992,123.094 35.625,122.968 35.625 C 122.842 35.625,122.258 36.047,121.671 36.562 C 121.084 37.078,120.414 37.500,120.184 37.500 C 119.953 37.500,119.577 37.725,119.349 38.000 C 118.995 38.427,116.778 40.009,115.013 41.094 C 114.734 41.266,114.159 41.719,113.737 42.101 C 111.973 43.696,110.380 45.000,110.196 45.000 C 110.088 45.000,109.453 45.562,108.786 46.250 C 108.119 46.937,107.461 47.500,107.324 47.500 C 106.956 47.500,96.563 57.372,96.563 57.721 C 96.563 57.830,95.684 58.863,94.609 60.018 C 93.535 61.173,92.276 62.590,91.810 63.168 C 91.345 63.746,90.431 64.869,89.779 65.665 C 89.127 66.460,88.242 67.569,87.813 68.129 C 87.383 68.689,86.645 69.604,86.172 70.162 C 85.699 70.720,85.312 71.326,85.312 71.510 C 85.313 71.694,85.137 71.956,84.922 72.094 C 84.483 72.374,83.899 73.246,83.444 74.297 C 83.277 74.684,82.996 75.000,82.820 75.000 C 82.644 75.000,82.500 75.146,82.500 75.325 C 82.500 75.695,81.215 77.602,80.859 77.760 C 80.730 77.818,80.625 78.032,80.625 78.236 C 80.625 78.441,80.133 79.355,79.531 80.269 C 78.930 81.182,78.438 82.058,78.438 82.215 C 78.438 82.372,78.330 82.500,78.199 82.500 C 78.068 82.500,77.822 82.772,77.652 83.104 C 77.483 83.436,76.953 84.491,76.475 85.448 C 75.998 86.405,75.481 87.188,75.328 87.188 C 75.175 87.188,74.957 87.609,74.844 88.125 C 74.730 88.641,74.520 89.063,74.375 89.063 C 74.230 89.063,74.020 89.484,73.906 90.000 C 73.793 90.516,73.582 90.938,73.438 90.938 C 73.293 90.938,73.082 91.359,72.969 91.875 C 72.855 92.391,72.645 92.813,72.500 92.813 C 72.355 92.813,72.141 93.249,72.024 93.783 C 71.907 94.317,71.483 95.407,71.082 96.205 C 70.013 98.333,69.063 100.546,69.063 100.904 C 69.063 101.076,68.715 101.871,68.290 102.670 C 67.865 103.470,67.427 104.604,67.317 105.190 C 67.207 105.777,67.004 106.326,66.867 106.411 C 66.729 106.496,66.522 107.127,66.406 107.813 C 66.290 108.498,66.079 109.131,65.937 109.219 C 65.796 109.306,65.585 109.939,65.469 110.625 C 65.353 111.311,65.134 111.949,64.982 112.042 C 64.830 112.136,64.613 112.911,64.500 113.763 C 64.387 114.615,64.185 115.313,64.052 115.313 C 63.918 115.313,63.712 116.015,63.594 116.875 C 63.476 117.734,63.268 118.505,63.132 118.589 C 62.997 118.673,62.789 119.515,62.671 120.460 C 62.553 121.405,62.337 122.252,62.190 122.342 C 62.044 122.433,61.826 123.419,61.707 124.535 C 61.587 125.650,61.380 126.563,61.246 126.563 C 61.112 126.563,60.903 127.688,60.781 129.064 C 60.659 130.440,60.447 131.635,60.310 131.720 C 60.173 131.805,59.958 133.386,59.834 135.234 C 59.706 137.133,59.455 138.691,59.257 138.817 C 58.753 139.137,58.762 165.352,59.266 165.967 C 59.463 166.209,59.726 167.531,59.850 168.906 C 59.974 170.281,60.181 171.547,60.311 171.719 C 60.441 171.891,60.645 172.838,60.765 173.823 C 60.884 174.809,61.098 175.687,61.241 175.776 C 61.384 175.864,61.599 176.780,61.719 177.812 C 61.838 178.843,62.055 179.688,62.199 179.688 C 62.344 179.687,62.558 180.355,62.677 181.172 C 62.795 181.988,63.002 182.797,63.136 182.969 C 63.271 183.141,63.480 183.810,63.601 184.457 C 63.722 185.103,63.946 185.709,64.098 185.803 C 64.250 185.897,64.376 186.282,64.377 186.659 C 64.378 187.036,64.589 187.747,64.846 188.239 C 65.102 188.731,65.313 189.364,65.314 189.645 C 65.315 189.926,65.513 190.533,65.754 190.995 C 65.994 191.456,66.291 192.299,66.413 192.870 C 66.535 193.440,66.743 194.047,66.875 194.219 C 67.007 194.391,67.213 194.988,67.332 195.547 C 67.452 196.105,67.679 196.563,67.837 196.563 C 67.996 196.563,68.126 196.809,68.127 197.109 C 68.128 197.410,68.326 198.033,68.566 198.495 C 68.807 198.956,69.098 199.764,69.214 200.291 C 69.330 200.819,69.554 201.250,69.712 201.250 C 69.871 201.250,70.001 201.496,70.002 201.797 C 70.003 202.098,70.201 202.721,70.441 203.182 C 70.682 203.643,70.973 204.452,71.089 204.979 C 71.205 205.506,71.418 205.938,71.563 205.938 C 71.707 205.938,71.918 206.359,72.031 206.875 C 72.145 207.391,72.367 207.813,72.525 207.813 C 72.683 207.813,72.814 208.059,72.816 208.359 C 72.819 208.660,73.228 209.711,73.727 210.694 C 74.226 211.677,74.727 212.908,74.842 213.428 C 74.956 213.949,75.168 214.375,75.312 214.375 C 75.457 214.375,75.668 214.797,75.781 215.313 C 75.895 215.828,76.105 216.250,76.250 216.250 C 76.395 216.250,76.605 216.672,76.719 217.188 C 76.832 217.703,77.043 218.125,77.188 218.125 C 77.332 218.125,77.543 218.547,77.656 219.063 C 77.770 219.578,77.980 220.000,78.125 220.000 C 78.270 220.000,78.480 220.422,78.594 220.938 C 78.707 221.453,78.918 221.875,79.063 221.875 C 79.207 221.875,79.418 222.297,79.531 222.813 C 79.645 223.328,79.855 223.750,80.000 223.750 C 80.145 223.750,80.355 224.172,80.469 224.688 C 80.582 225.203,80.793 225.625,80.938 225.625 C 81.082 225.625,81.293 226.047,81.406 226.563 C 81.520 227.078,81.730 227.500,81.875 227.500 C 82.020 227.500,82.230 227.922,82.344 228.438 C 82.457 228.953,82.672 229.375,82.822 229.375 C 82.972 229.375,83.672 230.535,84.378 231.953 C 85.758 234.727,86.295 235.691,86.599 235.938 C 86.704 236.023,86.899 236.445,87.031 236.875 C 87.164 237.305,87.358 237.727,87.464 237.813 C 87.748 238.044,88.323 239.017,89.264 240.859 C 89.725 241.762,90.208 242.500,90.338 242.500 C 90.469 242.500,90.668 242.922,90.781 243.438 C 90.895 243.953,91.107 244.375,91.253 244.375 C 91.399 244.375,91.835 245.008,92.221 245.781 C 92.607 246.555,93.028 247.188,93.156 247.188 C 93.283 247.188,93.480 247.609,93.594 248.125 C 93.707 248.641,93.929 249.063,94.087 249.063 C 94.246 249.063,94.375 249.209,94.375 249.388 C 94.375 249.708,95.581 251.567,95.991 251.878 C 96.106 251.966,96.297 252.423,96.415 252.894 C 96.534 253.365,96.746 253.750,96.887 253.750 C 97.028 253.750,97.460 254.383,97.846 255.156 C 98.232 255.930,98.648 256.563,98.769 256.563 C 98.890 256.563,99.080 256.809,99.190 257.109 C 99.300 257.410,99.739 258.219,100.165 258.906 C 100.591 259.594,101.026 260.402,101.131 260.703 C 101.237 261.004,101.437 261.250,101.577 261.250 C 101.717 261.250,102.147 261.883,102.533 262.656 C 102.920 263.430,103.351 264.062,103.493 264.062 C 103.634 264.063,103.750 264.209,103.750 264.388 C 103.750 264.708,104.956 266.567,105.366 266.878 C 105.481 266.966,105.672 267.423,105.790 267.894 C 105.909 268.365,106.134 268.750,106.292 268.750 C 106.449 268.750,106.715 269.066,106.882 269.453 C 107.276 270.365,107.899 271.355,108.231 271.598 C 108.548 271.830,109.289 273.072,109.563 273.828 C 109.671 274.129,109.888 274.375,110.044 274.375 C 110.200 274.375,110.465 274.691,110.632 275.078 C 111.026 275.990,111.649 276.980,111.981 277.223 C 112.298 277.455,113.039 278.697,113.313 279.453 C 113.421 279.754,113.638 280.000,113.794 280.000 C 113.950 280.000,114.215 280.316,114.382 280.703 C 114.836 281.754,115.421 282.626,115.859 282.906 C 116.074 283.044,116.250 283.306,116.250 283.490 C 116.250 283.674,116.677 284.334,117.198 284.959 C 118.624 286.665,118.750 286.833,118.750 287.031 C 118.750 287.268,120.078 289.161,120.419 289.411 C 120.735 289.642,121.477 290.884,121.750 291.641 C 121.859 291.941,122.076 292.187,122.232 292.188 C 122.388 292.188,122.652 292.504,122.819 292.891 C 123.263 293.916,123.813 294.713,124.609 295.484 C 124.996 295.859,125.313 296.260,125.313 296.377 C 125.312 296.635,126.618 298.520,126.981 298.786 C 127.230 298.968,127.826 299.915,128.330 300.931 C 128.456 301.185,128.883 301.693,129.280 302.060 C 129.676 302.427,130.000 302.866,130.000 303.034 C 130.000 303.203,130.281 303.595,130.625 303.906 C 130.969 304.217,131.250 304.646,131.250 304.859 C 131.250 305.072,131.461 305.327,131.719 305.426 C 131.977 305.524,132.187 305.767,132.187 305.965 C 132.187 306.286,133.275 307.730,134.539 309.089 C 134.793 309.361,135.000 309.694,135.000 309.829 C 135.000 310.054,136.253 311.658,137.352 312.839 C 137.605 313.111,137.812 313.444,137.812 313.579 C 137.813 313.804,139.066 315.408,140.164 316.589 C 140.418 316.861,140.625 317.194,140.625 317.329 C 140.625 317.554,141.878 319.158,142.977 320.339 C 143.230 320.611,143.437 320.944,143.437 321.079 C 143.438 321.304,144.691 322.908,145.789 324.089 C 146.043 324.361,146.250 324.721,146.250 324.890 C 146.250 325.058,146.672 325.600,147.187 326.094 C 147.703 326.588,148.125 327.113,148.125 327.261 C 148.125 327.409,148.477 327.856,148.906 328.254 C 149.336 328.652,149.688 329.085,149.688 329.217 C 149.687 329.426,150.993 331.044,152.357 332.526 C 152.607 332.798,152.812 333.159,152.813 333.327 C 152.813 333.495,153.234 334.037,153.750 334.531 C 154.266 335.025,154.693 335.579,154.701 335.762 C 154.708 335.944,155.130 336.439,155.638 336.860 C 156.147 337.282,156.562 337.783,156.563 337.974 C 156.563 338.164,156.984 338.725,157.500 339.219 C 158.016 339.713,158.443 340.266,158.451 340.449 C 158.458 340.632,158.880 341.126,159.388 341.548 C 159.897 341.969,160.313 342.470,160.313 342.661 C 160.313 342.852,160.734 343.412,161.250 343.906 C 161.766 344.400,162.193 344.954,162.201 345.137 C 162.208 345.319,162.630 345.814,163.138 346.235 C 163.647 346.657,164.063 347.158,164.063 347.349 C 164.063 347.539,164.484 348.100,165.000 348.594 C 165.516 349.088,165.943 349.641,165.951 349.824 C 165.958 350.007,166.380 350.501,166.888 350.923 C 167.397 351.344,167.813 351.845,167.813 352.036 C 167.813 352.227,168.234 352.787,168.750 353.281 C 169.266 353.775,169.687 354.294,169.688 354.434 C 169.688 354.574,170.250 355.234,170.938 355.901 C 171.625 356.568,172.188 357.244,172.188 357.402 C 172.188 357.560,172.680 358.167,173.281 358.750 C 173.883 359.333,174.375 359.923,174.375 360.062 C 174.375 360.200,174.937 360.859,175.625 361.526 C 176.312 362.193,176.875 362.869,176.875 363.027 C 176.875 363.185,177.367 363.792,177.969 364.375 C 178.570 364.958,179.062 365.551,179.063 365.692 C 179.063 365.833,179.695 366.554,180.469 367.295 C 181.242 368.037,181.875 368.781,181.875 368.950 C 181.875 369.120,182.297 369.662,182.812 370.156 C 183.328 370.650,183.750 371.171,183.750 371.314 C 183.750 371.456,184.383 372.179,185.156 372.920 C 185.930 373.662,186.563 374.403,186.563 374.569 C 186.562 374.734,187.195 375.491,187.969 376.250 C 188.742 377.009,189.375 377.739,189.375 377.871 C 189.375 378.003,190.148 378.873,191.094 379.803 C 192.039 380.734,192.813 381.620,192.813 381.774 C 192.813 382.179,196.049 385.313,196.468 385.313 C 196.663 385.313,196.882 385.488,196.953 385.703 C 197.045 385.978,197.944 386.094,200.000 386.094 C 202.056 386.094,202.955 385.978,203.047 385.703 C 203.118 385.488,203.344 385.313,203.549 385.313 C 203.977 385.313,208.750 380.597,208.750 380.174 C 208.750 380.019,209.383 379.287,210.156 378.545 C 210.930 377.804,211.562 377.084,211.563 376.945 C 211.563 376.806,212.195 376.072,212.969 375.313 C 213.742 374.553,214.375 373.797,214.375 373.631 C 214.375 373.466,215.008 372.724,215.781 371.983 C 216.555 371.242,217.188 370.522,217.188 370.383 C 217.188 370.244,217.820 369.509,218.594 368.750 C 219.367 367.991,220.000 367.239,220.000 367.078 C 220.000 366.917,220.414 366.349,220.920 365.815 C 223.087 363.525,224.688 361.633,224.688 361.359 C 224.688 361.197,225.103 360.719,225.612 360.298 C 226.120 359.876,226.542 359.383,226.549 359.202 C 226.557 359.021,227.055 358.396,227.656 357.812 C 228.258 357.229,228.750 356.623,228.750 356.465 C 228.750 356.306,229.313 355.631,230.000 354.964 C 230.688 354.297,231.250 353.636,231.250 353.496 C 231.250 353.356,231.672 352.838,232.188 352.344 C 232.703 351.850,233.125 351.289,233.125 351.099 C 233.125 350.908,233.541 350.407,234.049 349.985 C 234.558 349.564,234.979 349.071,234.987 348.889 C 234.994 348.708,235.492 348.083,236.094 347.500 C 236.695 346.917,237.188 346.318,237.188 346.169 C 237.188 346.020,237.533 345.520,237.955 345.058 C 239.626 343.229,240.938 341.632,240.938 341.427 C 240.937 341.308,241.285 340.832,241.709 340.371 C 243.221 338.727,244.375 337.257,244.375 336.975 C 244.375 336.818,244.791 336.344,245.299 335.923 C 245.808 335.501,246.229 335.007,246.237 334.824 C 246.244 334.641,246.672 334.088,247.188 333.594 C 247.703 333.100,248.125 332.558,248.125 332.390 C 248.125 332.221,248.330 331.861,248.581 331.589 C 249.945 330.107,251.250 328.488,251.250 328.279 C 251.250 328.148,251.602 327.715,252.031 327.316 C 252.461 326.918,252.813 326.467,252.813 326.313 C 252.813 326.160,253.094 325.780,253.438 325.469 C 253.781 325.158,254.063 324.775,254.063 324.619 C 254.062 324.463,254.410 323.957,254.834 323.496 C 256.273 321.931,257.500 320.387,257.500 320.141 C 257.500 320.006,257.707 319.673,257.961 319.401 C 259.059 318.221,260.313 316.617,260.313 316.391 C 260.313 316.256,260.520 315.923,260.773 315.651 C 261.872 314.471,263.125 312.867,263.125 312.641 C 263.125 312.506,263.332 312.173,263.586 311.901 C 264.850 310.542,265.938 309.098,265.938 308.777 C 265.937 308.580,266.148 308.337,266.406 308.238 C 266.664 308.139,266.875 307.884,266.875 307.671 C 266.875 307.458,267.156 307.030,267.500 306.719 C 267.844 306.408,268.125 306.015,268.125 305.847 C 268.125 305.678,268.449 305.240,268.845 304.873 C 269.242 304.505,269.669 303.997,269.795 303.743 C 270.184 302.959,270.763 302.030,271.161 301.551 C 271.370 301.300,271.968 300.583,272.489 299.959 C 273.011 299.334,273.438 298.674,273.438 298.490 C 273.438 298.306,273.624 298.044,273.852 297.906 C 274.079 297.769,274.366 297.445,274.489 297.188 C 274.937 296.246,275.575 295.223,275.831 295.036 C 276.194 294.770,277.500 292.885,277.500 292.627 C 277.500 292.510,277.816 292.109,278.203 291.734 C 278.999 290.963,279.550 290.166,279.993 289.141 C 280.160 288.754,280.425 288.438,280.581 288.438 C 280.737 288.438,280.954 288.191,281.062 287.891 C 281.336 287.134,282.077 285.892,282.394 285.661 C 282.819 285.350,284.063 283.489,284.063 283.164 C 284.063 282.999,284.168 282.818,284.297 282.760 C 284.639 282.608,285.938 280.702,285.938 280.351 C 285.938 280.187,286.043 280.005,286.172 279.948 C 286.514 279.796,287.813 277.889,287.813 277.539 C 287.813 277.374,287.918 277.193,288.047 277.135 C 288.389 276.983,289.688 275.077,289.687 274.726 C 289.687 274.562,289.793 274.380,289.922 274.323 C 290.264 274.171,291.563 272.264,291.563 271.914 C 291.563 271.749,291.668 271.568,291.797 271.510 C 292.153 271.352,293.438 269.445,293.438 269.075 C 293.438 268.896,293.553 268.750,293.695 268.750 C 293.836 268.750,294.268 268.117,294.654 267.344 C 295.040 266.570,295.471 265.937,295.610 265.937 C 295.750 265.937,295.955 265.691,296.065 265.391 C 296.436 264.379,297.219 263.125,297.481 263.125 C 297.623 263.125,297.826 262.879,297.931 262.578 C 298.037 262.277,298.472 261.469,298.898 260.781 C 299.324 260.094,299.763 259.285,299.873 258.984 C 299.983 258.684,300.172 258.437,300.294 258.437 C 300.415 258.437,300.830 257.805,301.217 257.031 C 301.603 256.258,302.034 255.625,302.176 255.625 C 302.317 255.625,302.529 255.240,302.647 254.769 C 302.765 254.298,302.956 253.841,303.072 253.753 C 303.481 253.442,304.688 251.583,304.688 251.263 C 304.688 251.084,304.813 250.938,304.966 250.938 C 305.119 250.938,305.341 250.552,305.460 250.081 C 305.578 249.610,305.769 249.153,305.884 249.066 C 306.294 248.754,307.500 246.895,307.500 246.575 C 307.500 246.396,307.629 246.250,307.788 246.250 C 307.946 246.250,308.168 245.828,308.281 245.313 C 308.395 244.797,308.592 244.375,308.719 244.375 C 308.847 244.375,309.268 243.742,309.654 242.969 C 310.040 242.195,310.476 241.562,310.622 241.563 C 310.768 241.563,310.980 241.141,311.094 240.625 C 311.207 240.109,311.413 239.688,311.551 239.688 C 311.689 239.687,311.890 239.441,311.996 239.141 C 312.103 238.840,312.747 237.609,313.428 236.406 C 314.108 235.203,314.756 233.973,314.869 233.672 C 314.981 233.371,315.186 233.125,315.324 233.125 C 315.462 233.125,315.668 232.703,315.781 232.188 C 315.895 231.672,316.101 231.250,316.241 231.250 C 316.381 231.250,316.591 230.865,316.710 230.394 C 316.828 229.923,317.019 229.466,317.134 229.378 C 317.630 229.001,324.375 215.627,324.375 215.021 C 324.375 214.813,324.586 214.432,324.844 214.174 C 325.102 213.916,325.313 213.434,325.313 213.103 C 325.313 212.771,325.442 212.500,325.600 212.500 C 325.758 212.500,325.980 212.078,326.094 211.563 C 326.207 211.047,326.418 210.625,326.563 210.625 C 326.707 210.625,326.919 210.199,327.033 209.678 C 327.148 209.158,327.649 207.927,328.148 206.944 C 328.647 205.961,329.056 204.910,329.059 204.609 C 329.061 204.309,329.192 204.063,329.350 204.063 C 329.508 204.063,329.736 203.617,329.855 203.074 C 329.974 202.530,330.396 201.475,330.792 200.730 C 331.189 199.985,331.605 198.954,331.719 198.438 C 331.832 197.922,332.038 197.500,332.177 197.500 C 332.316 197.500,332.524 196.867,332.640 196.094 C 332.756 195.320,332.976 194.687,333.130 194.688 C 333.284 194.688,333.502 194.194,333.615 193.590 C 333.728 192.987,333.933 192.424,334.071 192.339 C 334.208 192.254,334.415 191.623,334.531 190.938 C 334.647 190.252,334.858 189.619,335.000 189.531 C 335.142 189.444,335.353 188.811,335.469 188.125 C 335.585 187.439,335.804 186.801,335.956 186.708 C 336.108 186.614,336.324 185.839,336.437 184.987 C 336.551 184.135,336.750 183.437,336.880 183.437 C 337.010 183.437,337.216 182.770,337.338 181.953 C 337.459 181.137,337.668 180.328,337.802 180.156 C 337.936 179.984,338.142 179.179,338.260 178.367 C 338.377 177.554,338.596 176.814,338.746 176.721 C 338.896 176.628,339.116 175.746,339.235 174.761 C 339.355 173.775,339.563 172.828,339.699 172.656 C 339.835 172.484,340.047 171.289,340.170 170.000 C 340.292 168.711,340.506 167.513,340.644 167.337 C 340.782 167.162,340.995 165.435,341.117 163.500 C 341.240 161.565,341.460 159.907,341.608 159.816 C 341.956 159.600,341.957 147.188,341.609 147.188 C 341.462 147.188,341.242 144.905,341.119 142.115 C 340.997 139.325,340.782 136.970,340.642 136.881 C 340.502 136.792,340.285 135.417,340.160 133.826 C 340.035 132.235,339.822 130.865,339.687 130.781 C 339.551 130.697,339.341 129.503,339.219 128.127 C 339.097 126.751,338.888 125.625,338.754 125.625 C 338.620 125.625,338.413 124.712,338.293 123.597 C 338.174 122.482,337.956 121.495,337.810 121.405 C 337.663 121.314,337.447 120.467,337.329 119.522 C 337.211 118.577,336.994 117.730,336.848 117.639 C 336.701 117.549,336.488 116.777,336.375 115.925 C 336.262 115.072,336.063 114.375,335.933 114.375 C 335.803 114.375,335.602 113.745,335.486 112.976 C 335.371 112.207,335.144 111.495,334.982 111.395 C 334.820 111.295,334.687 110.905,334.686 110.528 C 334.685 110.152,334.479 109.451,334.229 108.971 C 333.978 108.491,333.682 107.612,333.571 107.018 C 333.459 106.424,333.252 105.938,333.109 105.938 C 332.967 105.938,332.756 105.305,332.640 104.531 C 332.524 103.758,332.304 103.125,332.152 103.125 C 332.000 103.125,331.875 102.977,331.875 102.795 C 331.875 102.474,330.867 100.013,330.341 99.052 C 330.197 98.789,329.980 98.121,329.859 97.568 C 329.737 97.015,329.508 96.563,329.350 96.563 C 329.192 96.563,329.063 96.401,329.063 96.205 C 329.063 96.008,328.557 94.777,327.939 93.470 C 325.679 88.690,325.057 87.506,324.634 87.184 C 324.519 87.097,324.328 86.640,324.210 86.169 C 324.091 85.698,323.886 85.313,323.753 85.313 C 323.619 85.313,323.424 85.066,323.319 84.766 C 323.213 84.465,322.778 83.656,322.352 82.969 C 321.926 82.281,321.487 81.473,321.377 81.172 C 321.267 80.871,321.053 80.625,320.901 80.625 C 320.749 80.625,320.625 80.497,320.625 80.340 C 320.625 80.183,320.133 79.307,319.531 78.394 C 318.930 77.480,318.438 76.554,318.438 76.335 C 318.438 76.116,318.293 75.938,318.117 75.938 C 317.941 75.937,317.660 75.621,317.493 75.234 C 317.050 74.209,316.499 73.412,315.703 72.641 C 315.316 72.266,315.000 71.822,315.000 71.653 C 315.000 71.485,314.719 71.092,314.375 70.781 C 314.031 70.470,313.750 70.109,313.750 69.978 C 313.750 69.847,313.475 69.412,313.139 69.011 C 312.471 68.214,310.464 65.763,309.127 64.112 C 308.662 63.537,307.613 62.328,306.797 61.425 C 305.980 60.522,305.313 59.702,305.313 59.602 C 305.313 59.363,295.636 49.688,295.397 49.688 C 295.295 49.688,294.404 48.949,293.416 48.047 C 289.856 44.797,289.001 44.063,288.780 44.063 C 288.656 44.063,288.150 43.641,287.656 43.125 C 287.162 42.609,286.644 42.187,286.504 42.188 C 286.364 42.188,286.004 41.974,285.703 41.713 C 283.979 40.219,282.849 39.375,282.570 39.375 C 282.397 39.375,282.173 39.164,282.074 38.906 C 281.976 38.648,281.735 38.437,281.539 38.438 C 281.344 38.438,280.671 38.051,280.044 37.578 C 278.521 36.430,277.766 35.956,277.109 35.736 C 276.809 35.635,276.563 35.424,276.563 35.268 C 276.563 35.112,276.246 34.848,275.859 34.681 C 275.112 34.357,274.418 33.956,273.075 33.071 C 270.597 31.437,257.879 25.012,257.109 25.005 C 256.809 25.002,256.563 24.871,256.563 24.712 C 256.563 24.554,256.141 24.332,255.625 24.219 C 255.109 24.105,254.688 23.883,254.688 23.725 C 254.688 23.567,254.367 23.438,253.976 23.437 C 253.584 23.437,252.987 23.245,252.648 23.009 C 252.309 22.773,251.565 22.478,250.995 22.354 C 250.424 22.230,249.581 21.932,249.120 21.691 C 248.658 21.451,248.035 21.253,247.734 21.252 C 247.434 21.251,247.188 21.125,247.188 20.973 C 247.188 20.821,246.555 20.601,245.781 20.485 C 245.008 20.369,244.375 20.158,244.375 20.016 C 244.375 19.875,243.742 19.664,242.969 19.548 C 242.195 19.432,241.563 19.223,241.563 19.084 C 241.563 18.944,240.865 18.738,240.013 18.625 C 239.161 18.512,238.389 18.299,238.298 18.152 C 238.207 18.006,237.360 17.789,236.415 17.671 C 235.470 17.553,234.623 17.337,234.533 17.190 C 234.442 17.044,233.456 16.826,232.340 16.707 C 231.225 16.587,230.313 16.379,230.313 16.244 C 230.313 16.109,229.434 15.899,228.359 15.777 C 227.285 15.655,226.266 15.445,226.094 15.309 C 225.922 15.174,224.516 14.960,222.969 14.835 C 221.422 14.709,220.084 14.495,219.997 14.359 C 219.909 14.223,217.975 14.010,215.700 13.887 C 213.424 13.763,211.563 13.541,211.563 13.393 C 211.563 13.246,206.359 13.125,200.000 13.125 C 193.380 13.125,188.438 13.245,188.438 13.405 M209.187 80.906 C 209.376 81.061,210.621 81.288,211.953 81.412 C 213.285 81.535,214.375 81.742,214.375 81.871 C 214.375 82.001,215.072 82.199,215.925 82.313 C 216.777 82.426,217.551 82.641,217.644 82.792 C 217.737 82.943,218.516 83.163,219.375 83.281 C 220.235 83.399,220.938 83.624,220.938 83.779 C 220.938 83.935,221.184 84.063,221.484 84.064 C 221.785 84.065,222.408 84.263,222.870 84.504 C 223.331 84.744,224.139 85.036,224.666 85.152 C 225.194 85.267,225.625 85.480,225.625 85.625 C 225.625 85.770,226.047 85.980,226.563 86.094 C 227.078 86.207,227.500 86.418,227.500 86.563 C 227.500 86.707,227.922 86.918,228.438 87.031 C 228.953 87.145,229.375 87.355,229.375 87.500 C 229.375 87.645,229.797 87.855,230.313 87.969 C 230.828 88.082,231.250 88.294,231.250 88.440 C 231.250 88.587,231.883 89.022,232.656 89.408 C 233.430 89.795,234.063 90.226,234.063 90.368 C 234.063 90.509,234.209 90.625,234.388 90.625 C 234.758 90.625,236.665 91.910,236.823 92.266 C 236.880 92.395,237.074 92.500,237.254 92.500 C 237.612 92.500,239.213 93.827,241.888 96.341 C 242.840 97.236,243.895 98.123,244.231 98.312 C 244.568 98.501,244.986 98.936,245.161 99.278 C 245.335 99.621,246.108 100.544,246.879 101.328 C 248.876 103.360,250.938 105.843,250.938 106.214 C 250.938 106.389,251.113 106.644,251.328 106.781 C 251.846 107.112,253.125 108.950,253.125 109.362 C 253.125 109.541,253.232 109.688,253.363 109.688 C 253.495 109.688,253.741 109.959,253.910 110.291 C 255.278 112.969,256.296 114.918,256.533 115.313 C 257.243 116.495,258.750 119.972,258.750 120.429 C 258.750 120.709,258.891 120.938,259.063 120.938 C 259.234 120.938,259.375 121.258,259.375 121.649 C 259.375 122.041,259.567 122.638,259.801 122.977 C 260.035 123.316,260.324 124.258,260.444 125.071 C 260.563 125.883,260.784 126.624,260.934 126.716 C 261.084 126.809,261.304 127.691,261.423 128.677 C 261.542 129.662,261.763 130.624,261.914 130.813 C 262.064 131.003,262.279 132.444,262.391 134.017 C 262.502 135.589,262.713 136.875,262.859 136.875 C 263.206 136.875,263.207 149.288,262.860 149.502 C 262.714 149.592,262.503 150.957,262.391 152.535 C 262.279 154.113,262.056 155.563,261.895 155.757 C 261.734 155.951,261.505 156.879,261.385 157.820 C 261.265 158.761,261.061 159.672,260.932 159.844 C 260.803 160.016,260.594 160.648,260.469 161.250 C 260.343 161.852,260.132 162.484,260.000 162.656 C 259.868 162.828,259.660 163.435,259.538 164.005 C 259.416 164.576,259.119 165.419,258.879 165.880 C 258.638 166.342,258.439 166.859,258.436 167.031 C 258.427 167.573,254.435 175.331,253.605 176.419 C 253.169 176.991,252.813 177.564,252.813 177.693 C 252.813 177.823,252.250 178.596,251.563 179.411 C 250.875 180.226,250.313 181.069,250.313 181.283 C 250.313 181.783,238.290 193.750,237.787 193.750 C 237.579 193.750,236.807 194.242,236.073 194.844 C 235.339 195.445,234.647 195.938,234.536 195.938 C 234.424 195.938,233.886 196.254,233.339 196.641 C 231.782 197.743,231.308 198.005,227.813 199.707 C 223.194 201.955,222.772 202.140,221.719 202.376 C 221.203 202.492,220.641 202.691,220.469 202.820 C 220.297 202.948,219.664 203.156,219.063 203.281 C 218.461 203.407,217.828 203.618,217.656 203.751 C 217.484 203.884,216.606 204.092,215.703 204.213 C 214.801 204.334,213.991 204.550,213.903 204.692 C 213.815 204.835,212.796 205.049,211.637 205.170 C 210.479 205.290,209.340 205.542,209.107 205.729 C 208.505 206.213,192.132 206.223,191.532 205.741 C 191.291 205.546,190.005 205.288,188.674 205.167 C 187.343 205.046,186.183 204.832,186.095 204.690 C 186.008 204.549,185.199 204.334,184.297 204.213 C 183.394 204.092,182.516 203.884,182.344 203.751 C 182.172 203.618,181.544 203.405,180.948 203.278 C 179.818 203.036,179.580 202.943,177.865 202.084 C 177.293 201.797,176.672 201.563,176.485 201.563 C 175.892 201.563,167.702 197.398,166.518 196.494 C 165.891 196.016,165.267 195.625,165.131 195.625 C 164.995 195.625,164.217 195.063,163.402 194.375 C 162.586 193.688,161.757 193.125,161.559 193.125 C 161.086 193.125,150.000 182.036,150.000 181.563 C 150.000 181.363,149.508 180.598,148.906 179.864 C 148.305 179.130,147.813 178.423,147.813 178.294 C 147.813 178.165,147.414 177.546,146.928 176.920 C 146.441 176.294,145.518 174.727,144.876 173.438 C 144.235 172.148,143.591 170.883,143.445 170.625 C 143.299 170.367,142.802 169.313,142.340 168.281 C 141.877 167.250,141.307 165.984,141.073 165.469 C 140.838 164.953,140.552 164.109,140.436 163.594 C 140.321 163.078,140.111 162.509,139.971 162.328 C 139.830 162.148,139.619 161.374,139.502 160.609 C 139.385 159.845,139.187 159.078,139.061 158.906 C 138.936 158.734,138.735 157.824,138.615 156.883 C 138.495 155.942,138.270 155.018,138.114 154.830 C 137.958 154.643,137.735 152.911,137.618 150.983 C 137.501 149.055,137.286 147.404,137.140 147.314 C 136.994 147.224,136.875 145.409,136.875 143.281 C 136.875 141.153,136.994 139.338,137.140 139.248 C 137.286 139.158,137.501 137.507,137.618 135.579 C 137.735 133.651,137.950 131.923,138.095 131.740 C 138.241 131.556,138.458 130.600,138.577 129.614 C 138.696 128.629,138.906 127.753,139.043 127.668 C 139.180 127.583,139.386 126.814,139.499 125.957 C 139.613 125.101,139.826 124.326,139.974 124.235 C 140.121 124.144,140.340 123.548,140.459 122.910 C 140.579 122.272,140.876 121.466,141.120 121.118 C 141.363 120.770,141.563 120.166,141.563 119.774 C 141.563 119.383,141.692 119.063,141.850 119.063 C 142.008 119.063,142.230 118.641,142.344 118.125 C 142.457 117.609,142.679 117.188,142.837 117.188 C 142.996 117.188,143.125 116.957,143.125 116.675 C 143.125 116.035,144.403 113.438,144.718 113.438 C 144.846 113.438,145.043 113.016,145.156 112.500 C 145.270 111.984,145.492 111.563,145.650 111.563 C 145.808 111.563,145.938 111.416,145.938 111.237 C 145.938 110.867,147.222 108.960,147.578 108.802 C 147.707 108.745,147.813 108.563,147.813 108.399 C 147.813 108.007,149.108 106.164,149.609 105.844 C 149.824 105.706,150.000 105.451,150.000 105.277 C 150.000 104.319,160.773 93.438,161.721 93.438 C 161.852 93.438,162.266 93.121,162.641 92.734 C 163.412 91.938,164.209 91.388,165.234 90.944 C 165.621 90.777,165.938 90.530,165.938 90.394 C 165.938 90.259,166.209 90.009,166.541 89.840 C 166.874 89.670,167.928 89.140,168.885 88.663 C 169.842 88.185,170.625 87.669,170.625 87.516 C 170.625 87.362,171.047 87.145,171.563 87.031 C 172.078 86.918,172.500 86.707,172.500 86.563 C 172.500 86.418,172.945 86.202,173.489 86.082 C 174.033 85.963,175.087 85.541,175.832 85.145 C 176.577 84.749,177.644 84.327,178.203 84.208 C 178.762 84.088,179.359 83.882,179.531 83.750 C 179.703 83.618,180.336 83.407,180.938 83.281 C 181.539 83.156,182.186 82.929,182.375 82.777 C 182.564 82.625,183.408 82.411,184.250 82.301 C 185.092 82.191,185.923 81.991,186.097 81.856 C 186.270 81.721,187.325 81.511,188.441 81.390 C 189.556 81.268,190.616 81.053,190.795 80.912 C 191.547 80.321,208.463 80.316,209.187 80.906 " stroke="none" fill="#3498db" fill-rule="evenodd"></path></g></svg>